<svg version="1.2" xmlns="http://www.w3.org/2000/svg" viewBox="0 0 2122 2122" width="2122" height="2122">
	<title>sl_020422_4830_01-ai</title>
	<defs>
		<radialGradient id="g1" cx="0" cy="0" r="1" gradientUnits="userSpaceOnUse" gradientTransform="matrix(2033.331,0,0,2033.331,1385.462,-31.754)">
			<stop offset="0" stop-color="#ff90ae"/>
			<stop offset="1" stop-color="#ea0d49"/>
		</radialGradient>
		<clipPath clipPathUnits="userSpaceOnUse" id="cp1">
			<path d="m1055.03 402.53c60.74 189.39-76.35 254.81 45.51 281.93-32.88 21.24-82.14-24.58-25.3 80.46 39.48 72.99 73.67 82.23 40.06 107.7-26.71 20.23-74.47-0.13-85.02 25.61-6.9 16.83 13.79 24.9 25.03 65.33 6.77 24.39-58.99 16.33-63.61 21.99-4.68 5.6 34.44 24.04 34.35 39.59-0.09 15.61-33.63 24.94-45.25 37.34-12.7 13.56 54.42 249.31-290.13 7.03-71.52-35.45-244.8 110.14-4.17 268.25 47.65 31.3 99.67 55.74 146.08 88.85 37.56 26.81 86.37 61.32 132.36 109.64 40.31-9.34 71.6-31.94 86.1-71.11 66.62-179.88 329.65-71.43 301.21-111.4-50.08-70.36-112.81-82.21-130.47-112.05-15.93-26.91 19.48-48.91 10.14-62.69-9.34-13.77-6.4-24.96-0.96-30.36 27.14-26.94-18.75-23.14 20.45-50.05 42.82-29.37 1.86-47.68 15.52-65.09 13.56-17.3 48.66-9.36 76.26-29.2 33.63-24.19 19.41-29.73 37.65-94.1 22.33-78.79 92.24-118.08 175.96-127.06-19.28-165.51-254.98-430.68-471.15-466.69 11.28 47.37-32.03 83.82-30.62 86.08z"/>
		</clipPath>
		<clipPath clipPathUnits="userSpaceOnUse" id="cp2">
			<path d="m1055.03 402.53c60.74 189.39-76.35 254.81 45.51 281.93-32.88 21.24-82.14-24.58-25.3 80.46 39.48 72.99 73.67 82.23 40.06 107.7-26.71 20.23-74.47-0.13-85.02 25.61-6.9 16.83 13.79 24.9 25.03 65.33 6.77 24.39-58.99 16.33-63.61 21.99-4.68 5.6 34.44 24.04 34.35 39.59-0.09 15.61-33.63 24.94-45.25 37.34-12.7 13.56 54.42 249.31-290.13 7.03-71.52-35.45-244.8 110.14-4.17 268.25 47.65 31.3 99.67 55.74 146.08 88.85 37.56 26.81 86.37 61.32 132.36 109.64 40.31-9.34 71.6-31.94 86.1-71.11 66.62-179.88 329.65-71.43 301.21-111.4-50.08-70.36-112.81-82.21-130.47-112.05-15.93-26.91 19.48-48.91 10.14-62.69-9.34-13.77-6.4-24.96-0.96-30.36 27.14-26.94-18.75-23.14 20.45-50.05 42.82-29.37 1.86-47.68 15.52-65.09 13.56-17.3 48.66-9.36 76.26-29.2 33.63-24.19 19.41-29.73 37.65-94.1 22.33-78.79 92.24-118.08 175.96-127.06-19.28-165.51-254.98-430.68-471.15-466.69 11.28 47.37-32.03 83.82-30.62 86.08z"/>
		</clipPath>
		<clipPath clipPathUnits="userSpaceOnUse" id="cp3">
			<path d="m1055.03 402.53c60.74 189.39-76.35 254.81 45.51 281.93-32.88 21.24-82.14-24.58-25.3 80.46 39.48 72.99 73.67 82.23 40.06 107.7-26.71 20.23-74.47-0.13-85.02 25.61-6.9 16.83 13.79 24.9 25.03 65.33 6.77 24.39-58.99 16.33-63.61 21.99-4.68 5.6 34.44 24.04 34.35 39.59-0.09 15.61-33.63 24.94-45.25 37.34-12.7 13.56 54.42 249.31-290.13 7.03-71.52-35.45-244.8 110.14-4.17 268.25 47.65 31.3 99.67 55.74 146.08 88.85 37.56 26.81 86.37 61.32 132.36 109.64 40.31-9.34 71.6-31.94 86.1-71.11 66.62-179.88 329.65-71.43 301.21-111.4-50.08-70.36-112.81-82.21-130.47-112.05-15.93-26.91 19.48-48.91 10.14-62.69-9.34-13.77-6.4-24.96-0.96-30.36 27.14-26.94-18.75-23.14 20.45-50.05 42.82-29.37 1.86-47.68 15.52-65.09 13.56-17.3 48.66-9.36 76.26-29.2 33.63-24.19 19.41-29.73 37.65-94.1 22.33-78.79 92.24-118.08 175.96-127.06-19.28-165.51-254.98-430.68-471.15-466.69 11.28 47.37-32.03 83.82-30.62 86.08z"/>
		</clipPath>
		<clipPath clipPathUnits="userSpaceOnUse" id="cp4">
			<path d="m1055.03 402.53c60.74 189.39-76.35 254.81 45.51 281.93-32.88 21.24-82.14-24.58-25.3 80.46 39.48 72.99 73.67 82.23 40.06 107.7-26.71 20.23-74.47-0.13-85.02 25.61-6.9 16.83 13.79 24.9 25.03 65.33 6.77 24.39-58.99 16.33-63.61 21.99-4.68 5.6 34.44 24.04 34.35 39.59-0.09 15.61-33.63 24.94-45.25 37.34-12.7 13.56 54.42 249.31-290.13 7.03-71.52-35.45-244.8 110.14-4.17 268.25 47.65 31.3 99.67 55.74 146.08 88.85 37.56 26.81 86.37 61.32 132.36 109.64 40.31-9.34 71.6-31.94 86.1-71.11 66.62-179.88 329.65-71.43 301.21-111.4-50.08-70.36-112.81-82.21-130.47-112.05-15.93-26.91 19.48-48.91 10.14-62.69-9.34-13.77-6.4-24.96-0.96-30.36 27.14-26.94-18.75-23.14 20.45-50.05 42.82-29.37 1.86-47.68 15.52-65.09 13.56-17.3 48.66-9.36 76.26-29.2 33.63-24.19 19.41-29.73 37.65-94.1 22.33-78.79 92.24-118.08 175.96-127.06-19.28-165.51-254.98-430.68-471.15-466.69 11.28 47.37-32.03 83.82-30.62 86.08z"/>
		</clipPath>
		<clipPath clipPathUnits="userSpaceOnUse" id="cp5">
			<path d="m1055.03 402.53c60.74 189.39-76.35 254.81 45.51 281.93-32.88 21.24-82.14-24.58-25.3 80.46 39.48 72.99 73.67 82.23 40.06 107.7-26.71 20.23-74.47-0.13-85.02 25.61-6.9 16.83 13.79 24.9 25.03 65.33 6.77 24.39-58.99 16.33-63.61 21.99-4.68 5.6 34.44 24.04 34.35 39.59-0.09 15.61-33.63 24.94-45.25 37.34-12.7 13.56 54.42 249.31-290.13 7.03-71.52-35.45-244.8 110.14-4.17 268.25 47.65 31.3 99.67 55.74 146.08 88.85 37.56 26.81 86.37 61.32 132.36 109.64 40.31-9.34 71.6-31.94 86.1-71.11 66.62-179.88 329.65-71.43 301.21-111.4-50.08-70.36-112.81-82.21-130.47-112.05-15.93-26.91 19.48-48.91 10.14-62.69-9.34-13.77-6.4-24.96-0.96-30.36 27.14-26.94-18.75-23.14 20.45-50.05 42.82-29.37 1.86-47.68 15.52-65.09 13.56-17.3 48.66-9.36 76.26-29.2 33.63-24.19 19.41-29.73 37.65-94.1 22.33-78.79 92.24-118.08 175.96-127.06-19.28-165.51-254.98-430.68-471.15-466.69 11.28 47.37-32.03 83.82-30.62 86.08z"/>
		</clipPath>
		<clipPath clipPathUnits="userSpaceOnUse" id="cp6">
			<path d="m1055.03 402.53c60.74 189.39-76.35 254.81 45.51 281.93-32.88 21.24-82.14-24.58-25.3 80.46 39.48 72.99 73.67 82.23 40.06 107.7-26.71 20.23-74.47-0.13-85.02 25.61-6.9 16.83 13.79 24.9 25.03 65.33 6.77 24.39-58.99 16.33-63.61 21.99-4.68 5.6 34.44 24.04 34.35 39.59-0.09 15.61-33.63 24.94-45.25 37.34-12.7 13.56 54.42 249.31-290.13 7.03-71.52-35.45-244.8 110.14-4.17 268.25 47.65 31.3 99.67 55.74 146.08 88.85 37.56 26.81 86.37 61.32 132.36 109.64 40.31-9.34 71.6-31.94 86.1-71.11 66.62-179.88 329.65-71.43 301.21-111.4-50.08-70.36-112.81-82.21-130.47-112.05-15.93-26.91 19.48-48.91 10.14-62.69-9.34-13.77-6.4-24.96-0.96-30.36 27.14-26.94-18.75-23.14 20.45-50.05 42.82-29.37 1.86-47.68 15.52-65.09 13.56-17.3 48.66-9.36 76.26-29.2 33.63-24.19 19.41-29.73 37.65-94.1 22.33-78.79 92.24-118.08 175.96-127.06-19.28-165.51-254.98-430.68-471.15-466.69 11.28 47.37-32.03 83.82-30.62 86.08z"/>
		</clipPath>
		<clipPath clipPathUnits="userSpaceOnUse" id="cp7">
			<path d="m1055.03 402.53c60.74 189.39-76.35 254.81 45.51 281.93-32.88 21.24-82.14-24.58-25.3 80.46 39.48 72.99 73.67 82.23 40.06 107.7-26.71 20.23-74.47-0.13-85.02 25.61-6.9 16.83 13.79 24.9 25.03 65.33 6.77 24.39-58.99 16.33-63.61 21.99-4.68 5.6 34.44 24.04 34.35 39.59-0.09 15.61-33.63 24.94-45.25 37.34-12.7 13.56 54.42 249.31-290.13 7.03-71.52-35.45-244.8 110.14-4.17 268.25 47.65 31.3 99.67 55.74 146.08 88.85 37.56 26.81 86.37 61.32 132.36 109.64 40.31-9.34 71.6-31.94 86.1-71.11 66.62-179.88 329.65-71.43 301.21-111.4-50.08-70.36-112.81-82.21-130.47-112.05-15.93-26.91 19.48-48.91 10.14-62.69-9.34-13.77-6.4-24.96-0.96-30.36 27.14-26.94-18.75-23.14 20.45-50.05 42.82-29.37 1.86-47.68 15.52-65.09 13.56-17.3 48.66-9.36 76.26-29.2 33.63-24.19 19.41-29.73 37.65-94.1 22.33-78.79 92.24-118.08 175.96-127.06-19.28-165.51-254.98-430.68-471.15-466.69 11.28 47.37-32.03 83.82-30.62 86.08z"/>
		</clipPath>
		<clipPath clipPathUnits="userSpaceOnUse" id="cp8">
			<path d="m1055.03 402.53c60.74 189.39-76.35 254.81 45.51 281.93-32.88 21.24-82.14-24.58-25.3 80.46 39.48 72.99 73.67 82.23 40.06 107.7-26.71 20.23-74.47-0.13-85.02 25.61-6.9 16.83 13.79 24.9 25.03 65.33 6.77 24.39-58.99 16.33-63.61 21.99-4.68 5.6 34.44 24.04 34.35 39.59-0.09 15.61-33.63 24.94-45.25 37.34-12.7 13.56 54.42 249.31-290.13 7.03-71.52-35.45-244.8 110.14-4.17 268.25 47.65 31.3 99.67 55.74 146.08 88.85 37.56 26.81 86.37 61.32 132.36 109.64 40.31-9.34 71.6-31.94 86.1-71.11 66.62-179.88 329.65-71.43 301.21-111.4-50.08-70.36-112.81-82.21-130.47-112.05-15.93-26.91 19.48-48.91 10.14-62.69-9.34-13.77-6.4-24.96-0.96-30.36 27.14-26.94-18.75-23.14 20.45-50.05 42.82-29.37 1.86-47.68 15.52-65.09 13.56-17.3 48.66-9.36 76.26-29.2 33.63-24.19 19.41-29.73 37.65-94.1 22.33-78.79 92.24-118.08 175.96-127.06-19.28-165.51-254.98-430.68-471.15-466.69 11.28 47.37-32.03 83.82-30.62 86.08z"/>
		</clipPath>
		<clipPath clipPathUnits="userSpaceOnUse" id="cp9">
			<path d="m1055.03 402.53c60.74 189.39-76.35 254.81 45.51 281.93-32.88 21.24-82.14-24.58-25.3 80.46 39.48 72.99 73.67 82.23 40.06 107.7-26.71 20.23-74.47-0.13-85.02 25.61-6.9 16.83 13.79 24.9 25.03 65.33 6.77 24.39-58.99 16.33-63.61 21.99-4.68 5.6 34.44 24.04 34.35 39.59-0.09 15.61-33.63 24.94-45.25 37.34-12.7 13.56 54.42 249.31-290.13 7.03-71.52-35.45-244.8 110.14-4.17 268.25 47.65 31.3 99.67 55.74 146.08 88.85 37.56 26.81 86.37 61.32 132.36 109.64 40.31-9.34 71.6-31.94 86.1-71.11 66.62-179.88 329.65-71.43 301.21-111.4-50.08-70.36-112.81-82.21-130.47-112.05-15.93-26.91 19.48-48.91 10.14-62.69-9.34-13.77-6.4-24.96-0.96-30.36 27.14-26.94-18.75-23.14 20.45-50.05 42.82-29.37 1.86-47.68 15.52-65.09 13.56-17.3 48.66-9.36 76.26-29.2 33.63-24.19 19.41-29.73 37.65-94.1 22.33-78.79 92.24-118.08 175.96-127.06-19.28-165.51-254.98-430.68-471.15-466.69 11.28 47.37-32.03 83.82-30.62 86.08z"/>
		</clipPath>
		<clipPath clipPathUnits="userSpaceOnUse" id="cp10">
			<path d="m1055.03 402.53c60.74 189.39-76.35 254.81 45.51 281.93-32.88 21.24-82.14-24.58-25.3 80.46 39.48 72.99 73.67 82.23 40.06 107.7-26.71 20.23-74.47-0.13-85.02 25.61-6.9 16.83 13.79 24.9 25.03 65.33 6.77 24.39-58.99 16.33-63.61 21.99-4.68 5.6 34.44 24.04 34.35 39.59-0.09 15.61-33.63 24.94-45.25 37.34-12.7 13.56 54.42 249.31-290.13 7.03-71.52-35.45-244.8 110.14-4.17 268.25 47.65 31.3 99.67 55.74 146.08 88.85 37.56 26.81 86.37 61.32 132.36 109.64 40.31-9.34 71.6-31.94 86.1-71.11 66.62-179.88 329.65-71.43 301.21-111.4-50.08-70.36-112.81-82.21-130.47-112.05-15.93-26.91 19.48-48.91 10.14-62.69-9.34-13.77-6.4-24.96-0.96-30.36 27.14-26.94-18.75-23.14 20.45-50.05 42.82-29.37 1.86-47.68 15.52-65.09 13.56-17.3 48.66-9.36 76.26-29.2 33.63-24.19 19.41-29.73 37.65-94.1 22.33-78.79 92.24-118.08 175.96-127.06-19.28-165.51-254.98-430.68-471.15-466.69 11.28 47.37-32.03 83.82-30.62 86.08z"/>
		</clipPath>
		<clipPath clipPathUnits="userSpaceOnUse" id="cp11">
			<path d="m1055.03 402.53c60.74 189.39-76.35 254.81 45.51 281.93-32.88 21.24-82.14-24.58-25.3 80.46 39.48 72.99 73.67 82.23 40.06 107.7-26.71 20.23-74.47-0.13-85.02 25.61-6.9 16.83 13.79 24.9 25.03 65.33 6.77 24.39-58.99 16.33-63.61 21.99-4.68 5.6 34.44 24.04 34.35 39.59-0.09 15.61-33.63 24.94-45.25 37.34-12.7 13.56 54.42 249.31-290.13 7.03-71.52-35.45-244.8 110.14-4.17 268.25 47.65 31.3 99.67 55.74 146.08 88.85 37.56 26.81 86.37 61.32 132.36 109.64 40.31-9.34 71.6-31.94 86.1-71.11 66.62-179.88 329.65-71.43 301.21-111.4-50.08-70.36-112.81-82.21-130.47-112.05-15.93-26.91 19.48-48.91 10.14-62.69-9.34-13.77-6.4-24.96-0.96-30.36 27.14-26.94-18.75-23.14 20.45-50.05 42.82-29.37 1.86-47.68 15.52-65.09 13.56-17.3 48.66-9.36 76.26-29.2 33.63-24.19 19.41-29.73 37.65-94.1 22.33-78.79 92.24-118.08 175.96-127.06-19.28-165.51-254.98-430.68-471.15-466.69 11.28 47.37-32.03 83.82-30.62 86.08z"/>
		</clipPath>
		<clipPath clipPathUnits="userSpaceOnUse" id="cp12">
			<path d="m1055.03 402.53c60.74 189.39-76.35 254.81 45.51 281.93-32.88 21.24-82.14-24.58-25.3 80.46 39.48 72.99 73.67 82.23 40.06 107.7-26.71 20.23-74.47-0.13-85.02 25.61-6.9 16.83 13.79 24.9 25.03 65.33 6.77 24.39-58.99 16.33-63.61 21.99-4.68 5.6 34.44 24.04 34.35 39.59-0.09 15.61-33.63 24.94-45.25 37.34-12.7 13.56 54.42 249.31-290.13 7.03-71.52-35.45-244.8 110.14-4.17 268.25 47.65 31.3 99.67 55.74 146.08 88.85 37.56 26.81 86.37 61.32 132.36 109.64 40.31-9.34 71.6-31.94 86.1-71.11 66.62-179.88 329.65-71.43 301.21-111.4-50.08-70.36-112.81-82.21-130.47-112.05-15.93-26.91 19.48-48.91 10.14-62.69-9.34-13.77-6.4-24.96-0.96-30.36 27.14-26.94-18.75-23.14 20.45-50.05 42.82-29.37 1.86-47.68 15.52-65.09 13.56-17.3 48.66-9.36 76.26-29.2 33.63-24.19 19.41-29.73 37.65-94.1 22.33-78.79 92.24-118.08 175.96-127.06-19.28-165.51-254.98-430.68-471.15-466.69 11.28 47.37-32.03 83.82-30.62 86.08z"/>
		</clipPath>
		<clipPath clipPathUnits="userSpaceOnUse" id="cp13">
			<path d="m1055.03 402.53c60.74 189.39-76.35 254.81 45.51 281.93-32.88 21.24-82.14-24.58-25.3 80.46 39.48 72.99 73.67 82.23 40.06 107.7-26.71 20.23-74.47-0.13-85.02 25.61-6.9 16.83 13.79 24.9 25.03 65.33 6.77 24.39-58.99 16.33-63.61 21.99-4.68 5.6 34.44 24.04 34.35 39.59-0.09 15.61-33.63 24.94-45.25 37.34-12.7 13.56 54.42 249.31-290.13 7.03-71.52-35.45-244.8 110.14-4.17 268.25 47.65 31.3 99.67 55.74 146.08 88.85 37.56 26.81 86.37 61.32 132.36 109.64 40.31-9.34 71.6-31.94 86.1-71.11 66.62-179.88 329.65-71.43 301.21-111.4-50.08-70.36-112.81-82.21-130.47-112.05-15.93-26.91 19.48-48.91 10.14-62.69-9.34-13.77-6.4-24.96-0.96-30.36 27.14-26.94-18.75-23.14 20.45-50.05 42.82-29.37 1.86-47.68 15.52-65.09 13.56-17.3 48.66-9.36 76.26-29.2 33.63-24.19 19.41-29.73 37.65-94.1 22.33-78.79 92.24-118.08 175.96-127.06-19.28-165.51-254.98-430.68-471.15-466.69 11.28 47.37-32.03 83.82-30.62 86.08z"/>
		</clipPath>
		<clipPath clipPathUnits="userSpaceOnUse" id="cp14">
			<path d="m1055.03 402.53c60.74 189.39-76.35 254.81 45.51 281.93-32.88 21.24-82.14-24.58-25.3 80.46 39.48 72.99 73.67 82.23 40.06 107.7-26.71 20.23-74.47-0.13-85.02 25.61-6.9 16.83 13.79 24.9 25.03 65.33 6.77 24.39-58.99 16.33-63.61 21.99-4.68 5.6 34.44 24.04 34.35 39.59-0.09 15.61-33.63 24.94-45.25 37.34-12.7 13.56 54.42 249.31-290.13 7.03-71.52-35.45-244.8 110.14-4.17 268.25 47.65 31.3 99.67 55.74 146.08 88.85 37.56 26.81 86.37 61.32 132.36 109.64 40.31-9.34 71.6-31.94 86.1-71.11 66.62-179.88 329.65-71.43 301.21-111.4-50.08-70.36-112.81-82.21-130.47-112.05-15.93-26.91 19.48-48.91 10.14-62.69-9.34-13.77-6.4-24.96-0.96-30.36 27.14-26.94-18.75-23.14 20.45-50.05 42.82-29.37 1.86-47.68 15.52-65.09 13.56-17.3 48.66-9.36 76.26-29.2 33.63-24.19 19.41-29.73 37.65-94.1 22.33-78.79 92.24-118.08 175.96-127.06-19.28-165.51-254.98-430.68-471.15-466.69 11.28 47.37-32.03 83.82-30.62 86.08z"/>
		</clipPath>
		<clipPath clipPathUnits="userSpaceOnUse" id="cp15">
			<path d="m1055.03 402.53c60.74 189.39-76.35 254.81 45.51 281.93-32.88 21.24-82.14-24.58-25.3 80.46 39.48 72.99 73.67 82.23 40.06 107.7-26.71 20.23-74.47-0.13-85.02 25.61-6.9 16.83 13.79 24.9 25.03 65.33 6.77 24.39-58.99 16.33-63.61 21.99-4.68 5.6 34.44 24.04 34.35 39.59-0.09 15.61-33.63 24.94-45.25 37.34-12.7 13.56 54.42 249.31-290.13 7.03-71.52-35.45-244.8 110.14-4.17 268.25 47.65 31.3 99.67 55.74 146.08 88.85 37.56 26.81 86.37 61.32 132.36 109.64 40.31-9.34 71.6-31.94 86.1-71.11 66.62-179.88 329.65-71.43 301.21-111.4-50.08-70.36-112.81-82.21-130.47-112.05-15.93-26.91 19.48-48.91 10.14-62.69-9.34-13.77-6.4-24.96-0.96-30.36 27.14-26.94-18.75-23.14 20.45-50.05 42.82-29.37 1.86-47.68 15.52-65.09 13.56-17.3 48.66-9.36 76.26-29.2 33.63-24.19 19.41-29.73 37.65-94.1 22.33-78.79 92.24-118.08 175.96-127.06-19.28-165.51-254.98-430.68-471.15-466.69 11.28 47.37-32.03 83.82-30.62 86.08z"/>
		</clipPath>
		<clipPath clipPathUnits="userSpaceOnUse" id="cp16">
			<path d="m1055.03 402.53c60.74 189.39-76.35 254.81 45.51 281.93-32.88 21.24-82.14-24.58-25.3 80.46 39.48 72.99 73.67 82.23 40.06 107.7-26.71 20.23-74.47-0.13-85.02 25.61-6.9 16.83 13.79 24.9 25.03 65.33 6.77 24.39-58.99 16.33-63.61 21.99-4.68 5.6 34.44 24.04 34.35 39.59-0.09 15.61-33.63 24.94-45.25 37.34-12.7 13.56 54.42 249.31-290.13 7.03-71.52-35.45-244.8 110.14-4.17 268.25 47.65 31.3 99.67 55.74 146.08 88.85 37.56 26.81 86.37 61.32 132.36 109.64 40.31-9.34 71.6-31.94 86.1-71.11 66.62-179.88 329.65-71.43 301.21-111.4-50.08-70.36-112.81-82.21-130.47-112.05-15.93-26.91 19.48-48.91 10.14-62.69-9.34-13.77-6.4-24.96-0.96-30.36 27.14-26.94-18.75-23.14 20.45-50.05 42.82-29.37 1.86-47.68 15.52-65.09 13.56-17.3 48.66-9.36 76.26-29.2 33.63-24.19 19.41-29.73 37.65-94.1 22.33-78.79 92.24-118.08 175.96-127.06-19.28-165.51-254.98-430.68-471.15-466.69 11.28 47.37-32.03 83.82-30.62 86.08z"/>
		</clipPath>
		<clipPath clipPathUnits="userSpaceOnUse" id="cp17">
			<path d="m1055.03 402.53c60.74 189.39-76.35 254.81 45.51 281.93-32.88 21.24-82.14-24.58-25.3 80.46 39.48 72.99 73.67 82.23 40.06 107.7-26.71 20.23-74.47-0.13-85.02 25.61-6.9 16.83 13.79 24.9 25.03 65.33 6.77 24.39-58.99 16.33-63.61 21.99-4.68 5.6 34.44 24.04 34.35 39.59-0.09 15.61-33.63 24.94-45.25 37.34-12.7 13.56 54.42 249.31-290.13 7.03-71.52-35.45-244.8 110.14-4.17 268.25 47.65 31.3 99.67 55.74 146.08 88.85 37.56 26.81 86.37 61.32 132.36 109.64 40.31-9.34 71.6-31.94 86.1-71.11 66.62-179.88 329.65-71.43 301.21-111.4-50.08-70.36-112.81-82.21-130.47-112.05-15.93-26.91 19.48-48.91 10.14-62.69-9.34-13.77-6.4-24.96-0.96-30.36 27.14-26.94-18.75-23.14 20.45-50.05 42.82-29.37 1.86-47.68 15.52-65.09 13.56-17.3 48.66-9.36 76.26-29.2 33.63-24.19 19.41-29.73 37.65-94.1 22.33-78.79 92.24-118.08 175.96-127.06-19.28-165.51-254.98-430.68-471.15-466.69 11.28 47.37-32.03 83.82-30.62 86.08z"/>
		</clipPath>
		<clipPath clipPathUnits="userSpaceOnUse" id="cp18">
			<path d="m1055.03 402.53c60.74 189.39-76.35 254.81 45.51 281.93-32.88 21.24-82.14-24.58-25.3 80.46 39.48 72.99 73.67 82.23 40.06 107.7-26.71 20.23-74.47-0.13-85.02 25.61-6.9 16.83 13.79 24.9 25.03 65.33 6.77 24.39-58.99 16.33-63.61 21.99-4.68 5.6 34.44 24.04 34.35 39.59-0.09 15.61-33.63 24.94-45.25 37.34-12.7 13.56 54.42 249.31-290.13 7.03-71.52-35.45-244.8 110.14-4.17 268.25 47.65 31.3 99.67 55.74 146.08 88.85 37.56 26.81 86.37 61.32 132.36 109.64 40.31-9.34 71.6-31.94 86.1-71.11 66.62-179.88 329.65-71.43 301.21-111.4-50.08-70.36-112.81-82.21-130.47-112.05-15.93-26.91 19.48-48.91 10.14-62.69-9.34-13.77-6.4-24.96-0.96-30.36 27.14-26.94-18.75-23.14 20.45-50.05 42.82-29.37 1.86-47.68 15.52-65.09 13.56-17.3 48.66-9.36 76.26-29.2 33.63-24.19 19.41-29.73 37.65-94.1 22.33-78.79 92.24-118.08 175.96-127.06-19.28-165.51-254.98-430.68-471.15-466.69 11.28 47.37-32.03 83.82-30.62 86.08z"/>
		</clipPath>
		<clipPath clipPathUnits="userSpaceOnUse" id="cp19">
			<path d="m1055.03 402.53c60.74 189.39-76.35 254.81 45.51 281.93-32.88 21.24-82.14-24.58-25.3 80.46 39.48 72.99 73.67 82.23 40.06 107.7-26.71 20.23-74.47-0.13-85.02 25.61-6.9 16.83 13.79 24.9 25.03 65.33 6.77 24.39-58.99 16.33-63.61 21.99-4.68 5.6 34.44 24.04 34.35 39.59-0.09 15.61-33.63 24.94-45.25 37.34-12.7 13.56 54.42 249.31-290.13 7.03-71.52-35.45-244.8 110.14-4.17 268.25 47.65 31.3 99.67 55.74 146.08 88.85 37.56 26.81 86.37 61.32 132.36 109.64 40.31-9.34 71.6-31.94 86.1-71.11 66.62-179.88 329.65-71.43 301.21-111.4-50.08-70.36-112.81-82.21-130.47-112.05-15.93-26.91 19.48-48.91 10.14-62.69-9.34-13.77-6.4-24.96-0.96-30.36 27.14-26.94-18.75-23.14 20.45-50.05 42.82-29.37 1.86-47.68 15.52-65.09 13.56-17.3 48.66-9.36 76.26-29.2 33.63-24.19 19.41-29.73 37.65-94.1 22.33-78.79 92.24-118.08 175.96-127.06-19.28-165.51-254.98-430.68-471.15-466.69 11.28 47.37-32.03 83.82-30.62 86.08z"/>
		</clipPath>
		<clipPath clipPathUnits="userSpaceOnUse" id="cp20">
			<path d="m1055.03 402.53c60.74 189.39-76.35 254.81 45.51 281.93-32.88 21.24-82.14-24.58-25.3 80.46 39.48 72.99 73.67 82.23 40.06 107.7-26.71 20.23-74.47-0.13-85.02 25.61-6.9 16.83 13.79 24.9 25.03 65.33 6.77 24.39-58.99 16.33-63.61 21.99-4.68 5.6 34.44 24.04 34.35 39.59-0.09 15.61-33.63 24.94-45.25 37.34-12.7 13.56 54.42 249.31-290.13 7.03-71.52-35.45-244.8 110.14-4.17 268.25 47.65 31.3 99.67 55.74 146.08 88.85 37.56 26.81 86.37 61.32 132.36 109.64 40.31-9.34 71.6-31.94 86.1-71.11 66.62-179.88 329.65-71.43 301.21-111.4-50.08-70.36-112.81-82.21-130.47-112.05-15.93-26.91 19.48-48.91 10.14-62.69-9.34-13.77-6.4-24.96-0.96-30.36 27.14-26.94-18.75-23.14 20.45-50.05 42.82-29.37 1.86-47.68 15.52-65.09 13.56-17.3 48.66-9.36 76.26-29.2 33.63-24.19 19.41-29.73 37.65-94.1 22.33-78.79 92.24-118.08 175.96-127.06-19.28-165.51-254.98-430.68-471.15-466.69 11.28 47.37-32.03 83.82-30.62 86.08z"/>
		</clipPath>
		<clipPath clipPathUnits="userSpaceOnUse" id="cp21">
			<path d="m1055.03 402.53c60.74 189.39-76.35 254.81 45.51 281.93-32.88 21.24-82.14-24.58-25.3 80.46 39.48 72.99 73.67 82.23 40.06 107.7-26.71 20.23-74.47-0.13-85.02 25.61-6.9 16.83 13.79 24.9 25.03 65.33 6.77 24.39-58.99 16.33-63.61 21.99-4.68 5.6 34.44 24.04 34.35 39.59-0.09 15.61-33.63 24.94-45.25 37.34-12.7 13.56 54.42 249.31-290.13 7.03-71.52-35.45-244.8 110.14-4.17 268.25 47.65 31.3 99.67 55.74 146.08 88.85 37.56 26.81 86.37 61.32 132.36 109.64 40.31-9.34 71.6-31.94 86.1-71.11 66.62-179.88 329.65-71.43 301.21-111.4-50.08-70.36-112.81-82.21-130.47-112.05-15.93-26.91 19.48-48.91 10.14-62.69-9.34-13.77-6.4-24.96-0.96-30.36 27.14-26.94-18.75-23.14 20.45-50.05 42.82-29.37 1.86-47.68 15.52-65.09 13.56-17.3 48.66-9.36 76.26-29.2 33.63-24.19 19.41-29.73 37.65-94.1 22.33-78.79 92.24-118.08 175.96-127.06-19.28-165.51-254.98-430.68-471.15-466.69 11.28 47.37-32.03 83.82-30.62 86.08z"/>
		</clipPath>
		<clipPath clipPathUnits="userSpaceOnUse" id="cp22">
			<path d="m1055.03 402.53c60.74 189.39-76.35 254.81 45.51 281.93-32.88 21.24-82.14-24.58-25.3 80.46 39.48 72.99 73.67 82.23 40.06 107.7-26.71 20.23-74.47-0.13-85.02 25.61-6.9 16.83 13.79 24.9 25.03 65.33 6.77 24.39-58.99 16.33-63.61 21.99-4.68 5.6 34.44 24.04 34.35 39.59-0.09 15.61-33.63 24.94-45.25 37.34-12.7 13.56 54.42 249.31-290.13 7.03-71.52-35.45-244.8 110.14-4.17 268.25 47.65 31.3 99.67 55.74 146.08 88.85 37.56 26.81 86.37 61.32 132.36 109.64 40.31-9.34 71.6-31.94 86.1-71.11 66.62-179.88 329.65-71.43 301.21-111.4-50.08-70.36-112.81-82.21-130.47-112.05-15.93-26.91 19.48-48.91 10.14-62.69-9.34-13.77-6.4-24.96-0.96-30.36 27.14-26.94-18.75-23.14 20.45-50.05 42.82-29.37 1.86-47.68 15.52-65.09 13.56-17.3 48.66-9.36 76.26-29.2 33.63-24.19 19.41-29.73 37.65-94.1 22.33-78.79 92.24-118.08 175.96-127.06-19.28-165.51-254.98-430.68-471.15-466.69 11.28 47.37-32.03 83.82-30.62 86.08z"/>
		</clipPath>
		<clipPath clipPathUnits="userSpaceOnUse" id="cp23">
			<path d="m1055.03 402.53c60.74 189.39-76.35 254.81 45.51 281.93-32.88 21.24-82.14-24.58-25.3 80.46 39.48 72.99 73.67 82.23 40.06 107.7-26.71 20.23-74.47-0.13-85.02 25.61-6.9 16.83 13.79 24.9 25.03 65.33 6.77 24.39-58.99 16.33-63.61 21.99-4.68 5.6 34.44 24.04 34.35 39.59-0.09 15.61-33.63 24.94-45.25 37.34-12.7 13.56 54.42 249.31-290.13 7.03-71.52-35.45-244.8 110.14-4.17 268.25 47.65 31.3 99.67 55.74 146.08 88.85 37.56 26.81 86.37 61.32 132.36 109.64 40.31-9.34 71.6-31.94 86.1-71.11 66.62-179.88 329.65-71.43 301.21-111.4-50.08-70.36-112.81-82.21-130.47-112.05-15.93-26.91 19.48-48.91 10.14-62.69-9.34-13.77-6.4-24.96-0.96-30.36 27.14-26.94-18.75-23.14 20.45-50.05 42.82-29.37 1.86-47.68 15.52-65.09 13.56-17.3 48.66-9.36 76.26-29.2 33.63-24.19 19.41-29.73 37.65-94.1 22.33-78.79 92.24-118.08 175.96-127.06-19.28-165.51-254.98-430.68-471.15-466.69 11.28 47.37-32.03 83.82-30.62 86.08z"/>
		</clipPath>
		<clipPath clipPathUnits="userSpaceOnUse" id="cp24">
			<path d="m1055.03 402.53c60.74 189.39-76.35 254.81 45.51 281.93-32.88 21.24-82.14-24.58-25.3 80.46 39.48 72.99 73.67 82.23 40.06 107.7-26.71 20.23-74.47-0.13-85.02 25.61-6.9 16.83 13.79 24.9 25.03 65.33 6.77 24.39-58.99 16.33-63.61 21.99-4.68 5.6 34.44 24.04 34.35 39.59-0.09 15.61-33.63 24.94-45.25 37.34-12.7 13.56 54.42 249.31-290.13 7.03-71.52-35.45-244.8 110.14-4.17 268.25 47.65 31.3 99.67 55.74 146.08 88.85 37.56 26.81 86.37 61.32 132.36 109.64 40.31-9.34 71.6-31.94 86.1-71.11 66.62-179.88 329.65-71.43 301.21-111.4-50.08-70.36-112.81-82.21-130.47-112.05-15.93-26.91 19.48-48.91 10.14-62.69-9.34-13.77-6.4-24.96-0.96-30.36 27.14-26.94-18.75-23.14 20.45-50.05 42.82-29.37 1.86-47.68 15.52-65.09 13.56-17.3 48.66-9.36 76.26-29.2 33.63-24.19 19.41-29.73 37.65-94.1 22.33-78.79 92.24-118.08 175.96-127.06-19.28-165.51-254.98-430.68-471.15-466.69 11.28 47.37-32.03 83.82-30.62 86.08z"/>
		</clipPath>
		<clipPath clipPathUnits="userSpaceOnUse" id="cp25">
			<path d="m1055.03 402.53c60.74 189.39-76.35 254.81 45.51 281.93-32.88 21.24-82.14-24.58-25.3 80.46 39.48 72.99 73.67 82.23 40.06 107.7-26.71 20.23-74.47-0.13-85.02 25.61-6.9 16.83 13.79 24.9 25.03 65.33 6.77 24.39-58.99 16.33-63.61 21.99-4.68 5.6 34.44 24.04 34.35 39.59-0.09 15.61-33.63 24.94-45.25 37.34-12.7 13.56 54.42 249.31-290.13 7.03-71.52-35.45-244.8 110.14-4.17 268.25 47.65 31.3 99.67 55.74 146.08 88.85 37.56 26.81 86.37 61.32 132.36 109.64 40.31-9.34 71.6-31.94 86.1-71.11 66.62-179.88 329.65-71.43 301.21-111.4-50.08-70.36-112.81-82.21-130.47-112.05-15.93-26.91 19.48-48.91 10.14-62.69-9.34-13.77-6.4-24.96-0.96-30.36 27.14-26.94-18.75-23.14 20.45-50.05 42.82-29.37 1.86-47.68 15.52-65.09 13.56-17.3 48.66-9.36 76.26-29.2 33.63-24.19 19.41-29.73 37.65-94.1 22.33-78.79 92.24-118.08 175.96-127.06-19.28-165.51-254.98-430.68-471.15-466.69 11.28 47.37-32.03 83.82-30.62 86.08z"/>
		</clipPath>
		<clipPath clipPathUnits="userSpaceOnUse" id="cp26">
			<path d="m1055.03 402.53c60.74 189.39-76.35 254.81 45.51 281.93-32.88 21.24-82.14-24.58-25.3 80.46 39.48 72.99 73.67 82.23 40.06 107.7-26.71 20.23-74.47-0.13-85.02 25.61-6.9 16.83 13.79 24.9 25.03 65.33 6.77 24.39-58.99 16.33-63.61 21.99-4.68 5.6 34.44 24.04 34.35 39.59-0.09 15.61-33.63 24.94-45.25 37.34-12.7 13.56 54.42 249.31-290.13 7.03-71.52-35.45-244.8 110.14-4.17 268.25 47.65 31.3 99.67 55.74 146.08 88.85 37.56 26.81 86.37 61.32 132.36 109.64 40.31-9.34 71.6-31.94 86.1-71.11 66.62-179.88 329.65-71.43 301.21-111.4-50.08-70.36-112.81-82.21-130.47-112.05-15.93-26.91 19.48-48.91 10.14-62.69-9.34-13.77-6.4-24.96-0.96-30.36 27.14-26.94-18.75-23.14 20.45-50.05 42.82-29.37 1.86-47.68 15.52-65.09 13.56-17.3 48.66-9.36 76.26-29.2 33.63-24.19 19.41-29.73 37.65-94.1 22.33-78.79 92.24-118.08 175.96-127.06-19.28-165.51-254.98-430.68-471.15-466.69 11.28 47.37-32.03 83.82-30.62 86.08z"/>
		</clipPath>
		<clipPath clipPathUnits="userSpaceOnUse" id="cp27">
			<path d="m1055.03 402.53c60.74 189.39-76.35 254.81 45.51 281.93-32.88 21.24-82.14-24.58-25.3 80.46 39.48 72.99 73.67 82.23 40.06 107.7-26.71 20.23-74.47-0.13-85.02 25.61-6.9 16.83 13.79 24.9 25.03 65.33 6.77 24.39-58.99 16.33-63.61 21.99-4.68 5.6 34.44 24.04 34.35 39.59-0.09 15.61-33.63 24.94-45.25 37.34-12.7 13.56 54.42 249.31-290.13 7.03-71.52-35.45-244.8 110.14-4.17 268.25 47.65 31.3 99.67 55.74 146.08 88.85 37.56 26.81 86.37 61.32 132.36 109.64 40.31-9.34 71.6-31.94 86.1-71.11 66.62-179.88 329.65-71.43 301.21-111.4-50.08-70.36-112.81-82.21-130.47-112.05-15.93-26.91 19.48-48.91 10.14-62.69-9.34-13.77-6.4-24.96-0.96-30.36 27.14-26.94-18.75-23.14 20.45-50.05 42.82-29.37 1.86-47.68 15.52-65.09 13.56-17.3 48.66-9.36 76.26-29.2 33.63-24.19 19.41-29.73 37.65-94.1 22.33-78.79 92.24-118.08 175.96-127.06-19.28-165.51-254.98-430.68-471.15-466.69 11.28 47.37-32.03 83.82-30.62 86.08z"/>
		</clipPath>
	</defs>
	<style>
		.s0 { fill: url(#g1) } 
		.s1 { fill: #ffffff } 
		.s2 { fill: #ffa1c4 } 
		.s3 { fill: #ffaac9 } 
		.s4 { fill: #ffb4ce } 
		.s5 { fill: #ffbdd5 } 
		.s6 { fill: #ffc6da } 
		.s7 { fill: #ffcfe2 } 
		.s8 { fill: #ffd9e6 } 
		.s9 { fill: #ffe2ee } 
		.s10 { fill: #ffecf3 } 
		.s11 { fill: #fff5fb } 
	</style>
	<g id="_Artboards_">
	</g>
	<g id="Layer 1">
		<g id="&lt;Group&gt;">
			<path id="&lt;Path&gt;" class="s0" d="m2121.3 2121.3h-2121.3v-2121.3h2121.3z"/>
			<g id="&lt;Group&gt;">
				<g id="&lt;Group&gt;">
					<path id="&lt;Compound Path&gt;" class="s1" d="m541.7 1634.6l0.3-4.1h35.6l64.3 136.6 63.3-136.6h35.6q0 0.6 0.2 1.9 0.3 1.4 0 2.2l-14.2 1.6q-2.7 0.3-3.3 3.5v174.2l20 1.1q0 0.3-0.3 4.1l-54.1 0.2 0.2-3.7 14-1.9q2.7-0.3 3.3-3.3v-170.2l-61.4 132.8-5.4 10.8h-6.2l-68.1-143.8v173.4l30.7 1.6q-0.1 0.3-0.3 4.1l-54.2 0.2 0.3-3.7 14-1.9q2.7-0.3 3.3-3.5v-170.5q-0.6-3.2-3.3-3.5z"/>
					<path id="&lt;Compound Path&gt;" fill-rule="evenodd" class="s1" d="m817.1 1820.1q-28.1 0-45.5-16.1-17.4-16.2-17.4-49.4 0-33.3 18.5-52.3 18.4-19 46.4-19 28 0 45.5 16.2 17.5 16.1 17.5 49.4 0 33.3-18.4 52.2-18.5 19-46.6 19zm1.8-131.9q-20.2 0-33.7 17.5-13.5 17.5-13.5 47.5 0 30 12.8 46.1 12.8 16 33 16 20.2 0 33.7-17.5 13.4-17.5 13.4-47.4 0-29.9-12.8-46.1-12.7-16.1-32.9-16.1z"/>
					<path id="&lt;Compound Path&gt;" class="s1" d="m957.3 1813.9l10.5-0.5 0.8 2.7q-0.3 0-3.8 0.8-8.1 1.9-18 1.9-9.2-0.5-16.7-3.1-7.6-2.6-14-10.8-6.5-8.2-6.5-21.1v-94.5h-13.7l2.1-2.2 11.9-2.4 2.1-25.9 15.1-1.3v26.9h32.6v4.9h-32.6v89.9q0 20.5 8.6 27.6 8.6 7.1 21.6 7.1z"/>
					<path id="&lt;Compound Path&gt;" class="s1" d="m1017.3 1628.1v73q35.3-24.2 63.9-15.1 6.4 1.9 11.1 5.5 4.7 3.7 8.2 10.9 3.5 7.3 3.5 17.6v93.7l20.2 1.3q0 0.3-0.2 4.1l-53.9 0.2q0-2.4 0.3-3.7l14-1.9q1.6 0 2.1-2.5v-84.2q0-10.5-2.8-18.2-2.8-7.7-6.6-11.2-3.8-3.5-8.9-5.4-7-2.7-12.4-2.1-17.5 0.5-38.5 14.2v109.4l20.2 1.3q0 0.3-0.2 4.1l-53.9 0.2q0-2.4 0.3-3.7l14-1.9q2.1-0.3 2.1-3.8v-183.1q0-3-1.6-3l-16.1-0.5 0.2-3.8q14.6-2.4 22.1-2.4 7.5 0 10.2 3.5 2.7 3.5 2.7 7.5z"/>
					<path id="&lt;Compound Path&gt;" fill-rule="evenodd" class="s1" d="m1148.5 1757.1q0 58.2 45.2 58.2 11.9 0 25.3-2.6 13.5-2.5 17.3-4.7l1.9 2.7q-6.2 4-20.4 6.7-14.1 2.7-25.8 2.7-11.7 0-21-2.4-9.3-2.4-19-8.6-9.7-6.2-15.4-19.4-5.6-13.2-5.6-32.3 0-35.6 18.3-54.4 19.1-19.7 44.4-19.7 25.3 0 38.7 14 13.3 14 13.3 39.3 0 5.4-0.8 11.6h-96.2q-0.2 3-0.2 8.9zm81.3-22.3q0-20.2-8.9-33-8.9-12.8-24.2-12.8-19.9 0-33.7 17.5-11 13.7-13.7 36.6h80.2q0.3-2.9 0.3-8.3z"/>
					<path id="&lt;Compound Path&gt;" class="s1" d="m1298.5 1695.4v21.6q21.3-31.2 41.7-31.8 1.6 0 3.3 0l15 1.9-7 16.2q-5.1-5.2-13.2-5.2-19.6 0.3-39.8 26.2v89.4l22.9 1.3q0 0.3-0.3 4.1l-56.6 0.2q0-2.4 0.3-3.7l14-1.9q2.2-0.3 2.2-3.8v-116.9q-0.6-1.9-1.6-1.9l-16.2-0.5 0.3-3.8q14.5-2.4 22.1-2.4 7.5 0 10.2 3.5 2.7 3.5 2.7 7.5z"/>
					<path id="&lt;Compound Path&gt;" class="s1" d="m1393.5 1647.8v-8.6q0-9.2-0.2-12.7h-2.7l9.1-0.8q0 3.8-0.2 7.5-0.3 3.8-0.4 6.9-0.2 3.1-0.4 5.8-0.3 2.7-0.6 4.8-0.3 2.2-0.5 3.7-0.3 1.5-0.6 3.1l-3.7 0.5 0.2-2.9q0-3 0-7.3z"/>
					<path id="&lt;Compound Path&gt;" class="s1" d="m1466.5 1815.8q1.6 0 3.2-0.2 14-0.3 23.5-8.8 9.4-8.5 9.4-24.9 0-16.2-25.3-23.4-10.5-3-21-6.5-10.5-3.5-17.9-11-7.4-7.6-7.4-19.7 0-17.2 13.2-27.6 13.2-10.4 33.4-10.4 15 0 30.4 5.4l4.8 1.9v31l-5.1 1.9-1.1-22.9q-15.6-12.4-26.1-12.4-14.8 0-23.4 8.7-8.6 8.8-8.6 23.3 0 8.4 7.4 13.5 7.4 5.1 17.9 8.1 10.5 2.9 21 6.6 10.5 3.6 17.9 11.8 7.4 8.2 7.4 21.4 0 17.8-13.3 28.2-13.4 10.3-37.9 10.3-24.5 0-40.6-11.5v-31l4.8-1.9 1.4 22.9q3.7 7 13.6 12.1 9.8 5.1 18.4 5.1z"/>
				</g>
				<g id="&lt;Group&gt;">
					<path id="&lt;Compound Path&gt;" fill-rule="evenodd" class="s1" d="m1331.7 1847.1q7 5.9 7 16.3 0 10.4-7 16.2-7 5.9-19.3 5.9h-26v-0.8h1q1.7 0 3-1.1 1.2-1.2 1.3-2.8v-35q-0.2-1.6-1.4-2.7-1.2-1.1-3-1.1h-0.9v-0.7h26q12.3 0 19.3 5.8zm-20.3 35.4q7.3 0 11.5-5.1 4.1-5 4.2-14-0.1-9-4.2-14.1-4.2-5.2-11.5-5.2h-8.6v38.4z"/>
					<path id="&lt;Compound Path&gt;" fill-rule="evenodd" class="s1" d="m1398.8 1884.7h0.6v0.8h-22.6v-0.8h0.6q1.6 0 2.2-0.9 0.7-0.8 0.7-1.6 0-0.7-0.3-1.5l-3-6.8h-16.3l-3 6.9q-0.4 0.7-0.4 1.5 0 0.7 0.8 1.6 0.7 0.8 2.2 0.8h0.7v0.8h-15.4v-0.8h0.6q1.6 0 3.2-0.9 1.6-1 2.6-2.9l16-32.7q3.3-7.3 3.5-9h0.7l20.6 41.4q1 2.1 2.6 3.1 1.7 1 3.4 1zm-36.8-13.7h13.7l-6.7-15.4z"/>
					<path id="&lt;Compound Path&gt;" class="s1" d="m1449.5 1842h-1q-2 0-3.8 1-1.8 1.1-2.9 2.6l-13.7 20.2v15q0.1 1.6 1.3 2.8 1.2 1.1 3.1 1.1h0.8v0.8h-21.5v-0.8h0.9q1.8 0 3-1.1 1.2-1.2 1.3-2.8v-15l-13.6-20.2q-1.1-1.6-2.9-2.6-1.8-1-3.9-1h-0.9v-0.7h23.4v0.7h-0.9q-1.4 0-2.1 0.9-0.6 1-0.6 1.6 0 0.6 0.3 1.1l10.2 17 10.4-17q0.2-0.5 0.2-1.1 0-0.6-0.6-1.6-0.7-0.9-2.1-0.9h-0.8v-0.7h16.4z"/>
				</g>
				<g id="&lt;Group&gt;">
					<path id="&lt;Compound Path&gt;" class="s1" d="m1108.9 1649h0.9v0.7h-21.2v-0.7h0.8q1.8 0 3-1.1 1.2-1.1 1.2-2.8v-15.9h-20.2v15.9q0.1 1.7 1.3 2.8 1.3 1.1 3 1.1h0.8v0.7h-21.2v-0.7h0.8q1.8 0 3-1.1 1.3-1.2 1.3-2.8v-34.9q0-1.6-1.3-2.8-1.2-1.1-3-1.1h-0.8v-0.8h21.2v0.8h-0.8q-1.7 0-3 1.1-1.2 1.1-1.3 2.7v16.1h20.2v-16q0-2.3-2-3.4-1-0.5-2.2-0.5h-0.8v-0.8h21.2v0.8h-0.9q-1.6 0-2.9 1.1-1.2 1.1-1.3 2.8v35q0.1 2.3 2.1 3.3 1 0.5 2.1 0.5z"/>
					<path id="&lt;Compound Path&gt;" fill-rule="evenodd" class="s1" d="m1170.5 1649h0.6v0.7h-22.6v-0.7h0.6q1.5 0 2.2-0.9 0.7-0.9 0.7-1.6 0-0.7-0.3-1.6l-3-6.7h-16.3l-3.1 6.8q-0.3 0.8-0.3 1.5 0 0.8 0.7 1.7 0.8 0.8 2.3 0.8h0.6v0.7h-15.3v-0.7h0.6q1.6 0 3.2-1 1.6-0.9 2.6-2.8l15.9-32.7q3.4-7.3 3.6-9h0.7l20.6 41.4q1 2.1 2.6 3.1 1.7 1 3.4 1zm-36.8-13.7h13.7l-6.8-15.4z"/>
					<path id="&lt;Compound Path&gt;" class="s1" d="m1217.1 1625.4q-3.8 6.4-12 6.4-4.1 0-8.1-2.6v-0.6q7.7 0 9.8-7.5 0.5-1.7 0.5-2.7 0-5.1-2.5-7.6-2.6-2.4-6.8-2.4h-3.5v36.7q0.1 2.4 2.1 3.4 0.9 0.5 2.1 0.5h0.9v0.7h-21.2v-0.7h0.9q1.7 0 2.9-1.1 1.2-1.1 1.2-2.7v-35q0-1.7-1.2-2.8-1.2-1.1-3-1.1h-0.9v-0.8h22.8q8.8 0 13.2 3.4 4.7 3.5 4.7 9.5 0 3.9-1.9 7z"/>
					<path id="&lt;Compound Path&gt;" class="s1" d="m1269 1625.4q-3.8 6.4-12 6.4-4.1 0-8.1-2.6v-0.6q7.7 0 9.8-7.5 0.5-1.7 0.5-2.7 0-5.1-2.5-7.6-2.6-2.4-6.8-2.4h-3.5v36.7q0.1 2.4 2.1 3.4 0.9 0.5 2.1 0.5h0.9v0.7h-21.2v-0.7h0.9q1.7 0 2.9-1.1 1.2-1.1 1.2-2.7v-35q0-1.7-1.2-2.8-1.2-1.1-3-1.1h-0.9v-0.8h22.8q8.8 0 13.2 3.4 4.7 3.5 4.7 9.5 0 3.9-1.9 7z"/>
					<path id="&lt;Compound Path&gt;" class="s1" d="m1331 1606.3h-1q-2 0-3.8 1-1.8 1-2.9 2.6l-13.7 20.2v15q0 1.6 1.3 2.8 1.2 1.1 3 1.1h0.9v0.7h-21.5v-0.7h0.9q1.8 0 3-1.1 1.2-1.2 1.3-2.8v-15l-13.6-20.2q-1.1-1.6-2.9-2.6-1.8-1-3.9-1h-0.9v-0.8h23.4v0.8h-0.9q-1.4 0-2.1 0.9-0.6 0.9-0.6 1.5 0 0.7 0.3 1.2l10.2 16.9 10.4-16.9q0.2-0.5 0.2-1.2 0-0.6-0.7-1.5-0.6-0.9-2.1-0.9h-0.7v-0.8h16.4z"/>
				</g>
			</g>
			<path id="&lt;Path&gt;" class="s1" d="m1055 402.5c60.8 189.4-76.3 254.8 45.5 282-32.8 21.2-82.1-24.6-25.3 80.4 39.5 73 73.7 82.3 40.1 107.7-26.7 20.3-74.5-0.1-85 25.6-6.9 16.9 13.8 24.9 25 65.4 6.8 24.3-59 16.3-63.6 21.9-4.7 5.6 34.4 24.1 34.3 39.6 0 15.6-33.6 25-45.2 37.4-12.7 13.5 54.4 249.3-290.1 7-71.5-35.4-244.8 110.1-4.2 268.3 47.6 31.3 99.7 55.7 146.1 88.8 37.5 26.8 86.4 61.3 132.3 109.7 40.3-9.4 71.6-32 86.1-71.2 66.7-179.8 329.7-71.4 301.2-111.4-50-70.3-112.8-82.2-130.4-112-15.9-26.9 19.5-48.9 10.1-62.7-9.3-13.8-6.4-25-0.9-30.4 27.1-26.9-18.8-23.1 20.4-50 42.8-29.4 1.9-47.7 15.5-65.1 13.6-17.3 48.7-9.4 76.3-29.2 33.6-24.2 19.4-29.7 37.6-94.1 22.4-78.8 92.3-118.1 176-127.1-19.3-165.5-255-430.6-471.2-466.6 11.3 47.3-32 83.8-30.6 86z"/>
			<g id="&lt;Group&gt;">
				<g id="&lt;Group&gt;">
					<g id="&lt;Group&gt;">
						<g id="&lt;Group&gt;">
							<g id="&lt;Clip Group&gt;" clip-path="url(#cp1)">
							</g>
						</g>
						<g id="&lt;Group&gt;">
							<g id="&lt;Clip Group&gt;" clip-path="url(#cp2)">
							</g>
						</g>
						<g id="&lt;Group&gt;">
							<g id="&lt;Clip Group&gt;" clip-path="url(#cp3)">
							</g>
						</g>
					</g>
					<g id="&lt;Group&gt;">
						<g id="&lt;Group&gt;">
							<g id="&lt;Clip Group&gt;" clip-path="url(#cp4)">
							</g>
						</g>
						<g id="&lt;Group&gt;">
							<g id="&lt;Clip Group&gt;" clip-path="url(#cp5)">
							</g>
						</g>
						<g id="&lt;Group&gt;">
							<g id="&lt;Clip Group&gt;" clip-path="url(#cp6)">
							</g>
						</g>
					</g>
					<g id="&lt;Group&gt;">
						<g id="&lt;Group&gt;">
							<g id="&lt;Clip Group&gt;" clip-path="url(#cp7)">
							</g>
						</g>
						<g id="&lt;Group&gt;">
							<g id="&lt;Clip Group&gt;" clip-path="url(#cp8)">
							</g>
						</g>
						<g id="&lt;Group&gt;">
							<g id="&lt;Clip Group&gt;" clip-path="url(#cp9)">
							</g>
						</g>
					</g>
				</g>
				<g id="&lt;Group&gt;">
					<g id="&lt;Group&gt;">
						<g id="&lt;Group&gt;">
							<g id="&lt;Clip Group&gt;" clip-path="url(#cp10)">
							</g>
						</g>
						<g id="&lt;Group&gt;">
							<g id="&lt;Clip Group&gt;" clip-path="url(#cp11)">
							</g>
						</g>
						<g id="&lt;Group&gt;">
							<g id="&lt;Clip Group&gt;" clip-path="url(#cp12)">
							</g>
						</g>
					</g>
					<g id="&lt;Group&gt;">
						<g id="&lt;Group&gt;">
							<g id="&lt;Clip Group&gt;" clip-path="url(#cp13)">
							</g>
						</g>
						<g id="&lt;Group&gt;">
							<g id="&lt;Clip Group&gt;" clip-path="url(#cp14)">
								<g id="&lt;Group&gt;">
									<path id="&lt;Path&gt;" class="s2" d="m982.6 465.5c60.7 189.4-76.4 254.8 45.5 281.9-32.9 21.3-82.1-24.5-25.3 80.5 39.5 73 73.7 82.2 40.1 107.7-26.8 20.2-74.5-0.1-85.1 25.6-6.9 16.8 13.8 24.9 25.1 65.3 6.7 24.4-59 16.4-63.6 22-4.7 5.6 34.4 24.1 34.3 39.6-0.1 15.6-33.6 25-45.2 37.4-12.7 13.5 54.4 249.3-290.2 7-71.5-35.5-244.8 110.1-4.1 268.2 47.6 31.3 99.6 55.8 146 88.9 37.6 26.8 86.4 61.3 132.4 109.6 40.3-9.3 71.6-31.9 86.1-71.1 66.6-179.9 329.6-71.4 301.2-111.4-50.1-70.3-112.8-82.2-130.5-112-15.9-26.9 19.5-48.9 10.2-62.7-9.4-13.8-6.4-25-1-30.4 27.2-26.9-18.7-23.1 20.5-50 42.8-29.4 1.8-47.7 15.5-65.1 13.5-17.3 48.6-9.4 76.2-29.2 33.7-24.2 19.5-29.8 37.7-94.1 22.3-78.8 92.2-118.1 176-127.1-19.3-165.5-255-430.7-471.2-466.7 11.3 47.4-32 83.8-30.6 86.1z"/>
									<path id="&lt;Compound Path&gt;" fill-rule="evenodd" class="s2" d="m860.7 1705.1l-37.8-39.7c-38.7-40.7-81.7-71.4-116.3-96.1l-2.2-1.6c-22-15.7-46.9-29.8-73.2-44.9-22.8-13-46.3-26.4-69.9-41.8-181.1-119.1-191.1-256.7-140-345.7 50.3-87.6 160-128.3 239.6-88.8l6.5 3.2 6 4.3c67.3 47.3 110.7 70.1 137.1 81.1 0.4-17.4 2.8-38.9 15.8-59.7-1.3-4.8-2.3-10-2.9-15.4-2.7-25.8 5.1-52.1 21.5-72.2 5-6.1 10.3-11.1 15.7-15.4-0.7-14.4 1.4-30.5 8.4-47.6 11.2-27.1 28.6-44.3 47.2-55.2-20.7-38.5-44.3-84.2-32.4-130.9-9.7-37.5-0.2-73.2 7.2-101 10.2-38.6 20.8-78.5 0.2-142.9-7.4-22.8-10-58.4 21.5-96.2 1.3-1.6 3.3-3.9 4.9-6.2l-31.3-131.4 142.7 23.7c262.6 43.8 526.7 344.2 550.7 550.3l11.2 96.2-96.3 10.4c-53 5.6-84.6 25.1-93.9 57.8-4.6 16.4-6.4 27-8 37.3-6 36.5-15.5 72.3-65.9 108.5-12.1 8.7-24.4 15-35.9 19.5-5.8 21.1-17.2 38.1-29.1 51.2q-1.8 9.5-5.4 18.8c1.1 9.4 0.8 19.6-1.2 30.6 29.6 19.1 68.2 47.1 102.8 95.8 24 33.6 26.5 75.9 6.7 110.2-33.7 58.3-95.7 52.3-136.8 48.4-103.8-10-144 0.6-159.3 41.8-24.9 67.3-79.8 113.9-154.4 131.2zm-271.7-476.1c-1.2 1.5-2 3-2.3 4.5-1.2 8.2 10.9 41.6 80 87 18.5 12.2 38.4 23.6 59.5 35.6 29.4 16.7 59.7 34 89.6 55.4l2.2 1.5c22.7 16.2 50.3 35.9 79.5 60.2 31.5-67.4 86.7-113.8 161.2-135.3-12.9-30.1-12.9-62.1 0-95.7-3.2-21.3-0.7-42.8 7.5-62.2-0.1-24 8.2-49.3 29.4-72.6-1.1-30.9 10.8-54.3 23.3-70.1 27.5-35.2 65-43.8 87.1-48.1 2.1-11.1 5.1-25.1 10-42.2 21.6-76.3 73.2-134.1 146.8-167.2-48.8-96.7-157.4-215.7-272.3-273.7 9.9 65.5 1.5 117.1-7.5 155.2l189.8 42.3-167.4 108.2c3.7 5.4 7.4 10.3 10.8 15 13.7 18.5 29.2 39.5 34.5 69.3 4.6 25.7 4.2 75-50 116-7.1 5.4-14.3 9.8-21.5 13.4 0.9 23.4-5.8 46.5-19.7 65.8-3.5 4.9-7.2 9.2-11.2 13.2-5.3 35.9-27.2 59.5-46.9 74.5-3.3 43.8-18 107.4-82.3 141-76.7 40-176.4 12.9-330.1-91zm490.8 66.7q0.1 0.1 0.1 0.2 0-0.1-0.1-0.2zm143.3-50.9q0 0 0 0 0 0 0 0z"/>
								</g>
								<g id="&lt;Group&gt;">
									<path id="&lt;Path&gt;" class="s3" d="m982.6 465.5c60.7 189.4-76.4 254.8 45.5 281.9-32.9 21.3-82.1-24.5-25.3 80.5 39.5 73 73.7 82.2 40.1 107.7-26.8 20.2-74.5-0.1-85.1 25.6-6.9 16.8 13.8 24.9 25.1 65.3 6.7 24.4-59 16.4-63.6 22-4.7 5.6 34.4 24.1 34.3 39.6-0.1 15.6-33.6 25-45.2 37.4-12.7 13.5 54.4 249.3-290.2 7-71.5-35.5-244.8 110.1-4.1 268.2 47.6 31.3 99.6 55.8 146 88.9 37.6 26.8 86.4 61.3 132.4 109.6 40.3-9.3 71.6-31.9 86.1-71.1 66.6-179.9 329.6-71.4 301.2-111.4-50.1-70.3-112.8-82.2-130.5-112-15.9-26.9 19.5-48.9 10.2-62.7-9.4-13.8-6.4-25-1-30.4 27.2-26.9-18.7-23.1 20.5-50 42.8-29.4 1.8-47.7 15.5-65.1 13.5-17.3 48.6-9.4 76.2-29.2 33.7-24.2 19.5-29.8 37.7-94.1 22.3-78.8 92.2-118.1 176-127.1-19.3-165.5-255-430.7-471.2-466.7 11.3 47.4-32 83.8-30.6 86.1z"/>
									<path id="&lt;Compound Path&gt;" fill-rule="evenodd" class="s3" d="m892.5 1685.6c-23.4 0-46.1-9.5-62.6-26.8-39.4-41.4-82.8-72.4-117.7-97.3l-2.2-1.6c-22.4-16-47.5-30.3-74-45.4-22.7-12.9-46.1-26.3-69.4-41.6-175.6-115.3-185.9-247.6-137-332.9 47.8-83.3 151.8-122.2 227-84.9q5.9 2.9 11.3 6.7c79.7 56 126.7 78.4 152.1 87.3q0-1.2 0-2.3c-0.1-18.5-0.2-45.2 16.8-69.8-1.8-5.5-3.1-11.5-3.8-18-2.5-23.3 4.5-47 19.3-65.1 5.7-7 11.8-12.5 18.2-16.8-1.5-14.5 0.1-30.9 7.4-48.7 11.7-28.6 31.3-45.1 51.5-54.7q-1.3-2.3-2.6-4.7c-20.7-38.3-45.7-84.5-33-130.3-10.1-36.1-0.8-71.3 6.4-98.5 10.2-38.1 21.6-81.3 0.1-148.3h0.1c-6.7-20.6-9-52.8 19.7-87.1 1.9-2.3 5.9-7.2 8-10.7-4.6-26.5 3.5-53.8 21.9-73.6 19.8-21.2 48.8-31 77.4-26.3 117 19.5 247.3 96 357.4 210 104.4 108.2 173.8 232.3 185.4 331.9 2.6 22.9-4 45.9-18.3 63.9-14.4 18-35.4 29.6-58.3 32-57.3 6.2-91.7 27.9-102.1 64.7-4.8 17-6.7 28.4-8.3 38.5-5.9 35.7-14.6 68.1-62 102.2-13.1 9.4-26.3 15.7-38.5 20.2-5.3 22.7-17.4 40.7-30 53.9q-1.7 10.9-6 21.4 2.6 17.9-2.1 37c29.5 18.7 69.8 46.5 105.6 96.7 21.7 30.6 24.1 68.9 6.1 99.9-30.5 52.9-86.6 47.5-127.5 43.6-108-10.3-152.2 2.3-169.2 48-23.8 64.2-76.2 108.7-147.6 125.3-6.5 1.5-13 2.2-19.5 2.2zm-304.3-468.8c-4.6 3.2-9.5 8.4-10.7 14.5-2.6 12.9 11.7 49.7 84 97.2 18.7 12.3 38.8 23.8 60.1 35.9 29.1 16.6 59.2 33.8 88.7 54.9l2.2 1.5c25.1 17.9 56.2 40.1 88.7 68 36.2-88.5 103.7-127.9 171.4-144.3-17-31.4-18.3-65.3-3.9-101.3-3.7-21.2-1.2-42.5 7.3-61.6-0.4-23.3 7.8-48 29.5-70.7-2.1-30.1 9.2-52.7 21-67.7 26.8-34.2 64.5-41.4 84.7-45.2 1-0.2 2.1-0.4 3.1-0.6 2.1-11.9 5.3-27.6 11-47.8 21.6-76.4 74.7-133.6 150.4-164.9-49.9-104.5-171.6-238-297.8-295.2 15.8 80.5 3.2 141.3-7.4 182.7 22.1 12.4 38 34.2 42.6 60 4.9 27.4-3.7 55.1-22.4 74.8 6.3 9.8 12.3 18 17.9 25.5 13.7 18.5 27.8 37.7 32.7 65.3 4.2 23.5 3.8 68.7-46.3 106.7-8.5 6.4-17.2 11.3-25.8 15.1 2.5 23.4-3.6 46.8-17.4 66.1-3.9 5.4-8.1 10.1-12.5 14.3-4.3 36.3-27.5 59.7-47.1 73.8-2.6 41.9-15.3 105.2-77.5 137.7-74.2 38.7-172.5 10.4-326.5-94.7zm499.7 73.5q0 0.1 0.1 0.2-0.1-0.1-0.1-0.2zm0 0q0 0 0 0 0 0 0 0zm-101.7-187.1q-0.1 0-0.1 0 0 0 0.1 0z"/>
								</g>
								<g id="&lt;Group&gt;">
									<path id="&lt;Path&gt;" class="s4" d="m982.6 465.5c60.7 189.4-76.4 254.8 45.5 281.9-32.9 21.3-82.1-24.5-25.3 80.5 39.5 73 73.7 82.2 40.1 107.7-26.8 20.2-74.5-0.1-85.1 25.6-6.9 16.8 13.8 24.9 25.1 65.3 6.7 24.4-59 16.4-63.6 22-4.7 5.6 34.4 24.1 34.3 39.6-0.1 15.6-33.6 25-45.2 37.4-12.7 13.5 54.4 249.3-290.2 7-71.5-35.5-244.8 110.1-4.1 268.2 47.6 31.3 99.6 55.8 146 88.9 37.6 26.8 86.4 61.3 132.4 109.6 40.3-9.3 71.6-31.9 86.1-71.1 66.6-179.9 329.6-71.4 301.2-111.4-50.1-70.3-112.8-82.2-130.5-112-15.9-26.9 19.5-48.9 10.2-62.7-9.4-13.8-6.4-25-1-30.4 27.2-26.9-18.7-23.1 20.5-50 42.8-29.4 1.8-47.7 15.5-65.1 13.5-17.3 48.6-9.4 76.2-29.2 33.7-24.2 19.5-29.8 37.7-94.1 22.3-78.8 92.2-118.1 176-127.1-19.3-165.5-255-430.7-471.2-466.7 11.3 47.4-32 83.8-30.6 86.1z"/>
									<path id="&lt;Compound Path&gt;" fill-rule="evenodd" class="s4" d="m892.5 1676c-20.8 0-41-8.4-55.6-23.8-40.1-42.1-83.9-73.4-119.2-98.5l-2.2-1.6c-22.8-16.3-48-30.7-74.8-45.9-22.5-12.9-45.8-26.2-68.8-41.3-170-111.7-180.7-238.6-133.9-320.1 45.3-79.1 143.5-116.2 214.3-81.1q5.3 2.6 10.1 6c94.3 66.3 144.2 86.4 167 92.4 0.2-5.7 0.2-11.5 0.2-15.3-0.1-19.3-0.2-45.1 17.9-68.2-2.4-6.2-4.2-13-5-20.6-2.2-20.8 4.1-41.9 17.3-58.1 6.5-7.9 13.7-13.8 21-18.1-2.3-14.5-1.5-31.4 6-49.7 12.5-30.5 34.6-46 56.2-53.9q-3.9-6.6-7.8-13.8c-21.2-39.2-44.8-82.9-31.4-125.6-10.7-34.4-1.7-68.1 5.7-96.2 10.5-39.3 22.3-83.9 0-153.6v-0.1c-5.8-18.3-7.8-47.1 17.9-78 2.3-2.7 9-10.8 10.7-15.5-5.2-24.5 1.8-50 19-68.4 17.5-18.8 43.4-27.6 68.7-23.3 115.1 19.1 243.4 94.7 352 207.2 103.1 106.7 171.5 228.7 182.8 326.3 2.4 20.4-3.5 40.8-16.2 56.8-12.8 16.1-31.5 26.3-51.9 28.5-61.5 6.6-98.6 30.7-110.2 71.6-5 17.5-6.9 29.2-8.6 39.5-5.5 33.6-13.6 64-58.1 96-13.9 10-28.2 16.4-41.1 20.6-4 24.4-17 43.4-31 57.3-1.1 8.2-3.4 16.4-6.8 24.3 2.3 13.4 1.2 27.6-3.3 42.4 29.2 18.3 71.8 45.7 109 98 19.5 27.4 21.7 61.7 5.6 89.5-27.4 47.6-77.8 42.8-118.2 38.9-97.3-9.3-157.9-3.4-179.2 54.2-22.6 61.1-72.6 103.4-140.8 119.2-5.7 1.4-11.5 2-17.3 2zm-303.8-470.5c-7.2 3.2-17.5 11.3-20.4 22.7-5 20 15 60.4 87.9 108.4 19 12.4 39.2 24 60.6 36.2 28.9 16.4 58.8 33.5 87.9 54.3l2.2 1.5c27.5 19.7 62.3 44.5 98.3 76.3 0.6-1.2 1-2.4 1.4-3.4 35.8-96.7 109.4-136 181.3-150.4q-2.4-3.5-4.6-7.3c-23.8-40.1-14.6-77.2-4.7-99.9-4.1-20.8-1.6-41.8 7.1-60.2-1.1-20.6 5-45.4 29.8-69.3-3.2-29.3 7.4-51.1 18.6-65.3 24.5-31.3 58.6-37.8 78.9-41.7 2.9-0.6 6.7-1.3 9.7-2 2-12.1 5.1-29.5 11.8-53.2 21.7-76.5 76.2-133 154.2-162.3-23.8-53.9-67-116.1-121.3-172.3-62.5-64.7-132.8-114.6-198.3-142q-1.4 2.5-2.9 4.9c20 89 4.2 154.5-7 196.7 23 10.2 39.9 31.3 44.5 56.7 4.8 26.9-5 54-25.3 71.5 8 13.2 15.6 23.5 22.5 32.8 13 17.7 26.4 35.9 30.9 61.3 3.9 21.4 3.4 62.5-42.6 97.3-10 7.6-20.4 12.9-30.6 16.7 4.4 23.4-0.8 47.3-14.6 66.6-4.2 5.8-8.9 10.9-13.9 15.2-2.9 37.4-27.4 60.1-47.3 73.4-1.8 39.8-12.6 103-72.5 134.2-71.5 37.3-168.2 8.2-321.6-97.4zm507.1 79.4q0 0.1 0 0.1 0-0.1 0-0.1zm0 0.1q0.1 0 0.1 0.1 0-0.1-0.1-0.1zm-117.2-187.7q0 0-0.1 0 0.1 0 0.1 0zm0.1-0.1q-0.1 0-0.1 0.1 0-0.1 0.1-0.1zm0-0.1q0 0 0 0.1 0-0.1 0-0.1z"/>
								</g>
								<g id="&lt;Group&gt;">
									<path id="&lt;Path&gt;" class="s5" d="m982.6 465.5c60.7 189.4-76.4 254.8 45.5 281.9-32.9 21.3-82.1-24.5-25.3 80.5 39.5 73 73.7 82.2 40.1 107.7-26.8 20.2-74.5-0.1-85.1 25.6-6.9 16.8 13.8 24.9 25.1 65.3 6.7 24.4-59 16.4-63.6 22-4.7 5.6 34.4 24.1 34.3 39.6-0.1 15.6-33.6 25-45.2 37.4-12.7 13.5 54.4 249.3-290.2 7-71.5-35.5-244.8 110.1-4.1 268.2 47.6 31.3 99.6 55.8 146 88.9 37.6 26.8 86.4 61.3 132.4 109.6 40.3-9.3 71.6-31.9 86.1-71.1 66.6-179.9 329.6-71.4 301.2-111.4-50.1-70.3-112.8-82.2-130.5-112-15.9-26.9 19.5-48.9 10.2-62.7-9.4-13.8-6.4-25-1-30.4 27.2-26.9-18.7-23.1 20.5-50 42.8-29.4 1.8-47.7 15.5-65.1 13.5-17.3 48.6-9.4 76.2-29.2 33.7-24.2 19.5-29.8 37.7-94.1 22.3-78.8 92.2-118.1 176-127.1-19.3-165.5-255-430.7-471.2-466.7 11.3 47.4-32 83.8-30.6 86.1z"/>
									<path id="&lt;Compound Path&gt;" fill-rule="evenodd" class="s5" d="m892.5 1666.4c-18.2 0-35.9-7.4-48.7-20.9-40.7-42.7-84.9-74.3-120.5-99.6l-2.2-1.6c-23.2-16.6-48.6-31.1-75.6-46.5-22.4-12.7-45.6-26-68.3-40.9-164.5-108.1-175.5-229.6-130.9-307.3 42.9-74.8 135.3-110.2 201.8-77.3q4.6 2.3 8.8 5.2c111.9 78.7 162.8 93.7 181.3 96.2 1.1-8.8 1-20.8 1-27-0.1-20.1-0.2-45 19.5-66.5-3.3-6.7-5.7-14.4-6.6-23.3-2-18.2 3.5-36.7 15.1-50.9 7.5-9.1 15.8-15 24.4-19-3.5-14.4-3.9-31.8 4.1-51.3 13.4-32.7 38.8-46.3 61.8-52.1-4.5-7.2-9.1-15.1-13.8-23.7-20.7-38.3-43.9-81.1-29.8-121-11.4-32.6-2.8-64.8 4.9-93.8 10.7-40.3 22.8-85.9 0.4-157.3-5.9-16.5-8.1-42.2 15.6-70.7 13.5-16.3 13.2-21.3 13-22.1-5.2-21.9 0.9-45 16.3-61.4 15.4-16.5 37.9-24.1 60.1-20.5 244.6 40.8 504.2 330.5 526.9 525.2 2.1 17.8-3.1 35.7-14.2 49.8-11.2 14-27.6 22.9-45.4 24.8-45.2 4.9-102.5 22.5-118.5 78.6-5.1 18-7 30-8.8 40.6-5.3 32.5-12.7 59.8-54.2 89.7-15.2 11-30.7 17.2-44.4 21.2-2.7 26.1-16.5 45.9-31.1 59.8-0.8 9.5-3.4 18.9-7.8 28 4 18.2 0.2 35-4.8 47.6q1.8 1.1 3.3 2.1c28.7 17.8 72 44.7 109.3 97.2 17.4 24.4 19.4 54.7 5.2 79.2-24.4 42.2-69.3 37.9-109 34.1-102-9.7-165.6-3-189.1 60.5-21.5 57.9-69 98.1-133.9 113.2-5.1 1.2-10.2 1.7-15.2 1.7zm-302.4-471.6c-9.1 2.2-25.4 12.7-30.5 29.1-9.8 31 25.3 77.2 91.4 120.7 19.2 12.6 39.5 24.2 61.1 36.5 28.7 16.4 58.3 33.3 87.1 53.8l2.2 1.6c29.3 20.9 67 47.8 105.4 82.8 4.5-4.7 7-9.7 8.8-14.5 36.8-99.4 115.8-135.5 190.1-147-5.2-5.6-10-11.9-14.2-18.9-22.4-37.9-12.3-73.2-2.9-94-4.6-20.5-2.2-41.5 6.9-59.6-1.4-19.6 4.3-43.9 30.2-67.2-3.9-23.4 1.4-44.6 15.9-63.1 22.4-28.5 54.2-34.6 73.2-38.2 5.5-1 13.6-2.6 16.4-3.9q0.2-1.3 0.4-2.5c2-12 4.9-30.1 12.1-55.5 21.7-76.5 77.7-132.1 157.8-159.3-47.9-117.6-189.7-276-336.5-332.4q-4.1 7.8-9.1 15.6c21.6 92.2 3.9 159.1-7.2 200.8q-0.5 1.7-1 3.6c24 7.3 42.1 27.4 46.5 52.4 4.7 26.1-6.5 52.5-28.4 67.4 9.9 17.2 19.1 29.7 27.3 40.9 13 17.5 25.2 34.1 29.3 57.2 3.4 19.3 2.9 56.3-39 88.1-11.7 8.9-24.2 14.4-36.2 17.9q0.2 0.7 0.4 1.4c6.4 23 2.2 47-11.4 66-4.6 6.4-9.8 11.7-15.4 16.1-1.2 38.4-27.4 60.2-47.4 72.8-1 38.4-9.2 100.6-67.6 131-68.5 35.8-163.3 6-315.7-99.6zm381.2-103.7q0 0 0-0.1 0 0.1 0 0.1zm132.5 188.5q0 0 0.1 0.1-0.1-0.1-0.1-0.1zm-76.2-602.3v0.1z"/>
								</g>
								<g id="&lt;Group&gt;">
									<path id="&lt;Path&gt;" class="s6" d="m982.6 465.5c60.7 189.4-76.4 254.8 45.5 281.9-32.9 21.3-82.1-24.5-25.3 80.5 39.5 73 73.7 82.2 40.1 107.7-26.8 20.2-74.5-0.1-85.1 25.6-6.9 16.8 13.8 24.9 25.1 65.3 6.7 24.4-59 16.4-63.6 22-4.7 5.6 34.4 24.1 34.3 39.6-0.1 15.6-33.6 25-45.2 37.4-12.7 13.5 54.4 249.3-290.2 7-71.5-35.5-244.8 110.1-4.1 268.2 47.6 31.3 99.6 55.8 146 88.9 37.6 26.8 86.4 61.3 132.4 109.6 40.3-9.3 71.6-31.9 86.1-71.1 66.6-179.9 329.6-71.4 301.2-111.4-50.1-70.3-112.8-82.2-130.5-112-15.9-26.9 19.5-48.9 10.2-62.7-9.4-13.8-6.4-25-1-30.4 27.2-26.9-18.7-23.1 20.5-50 42.8-29.4 1.8-47.7 15.5-65.1 13.5-17.3 48.6-9.4 76.2-29.2 33.7-24.2 19.5-29.8 37.7-94.1 22.3-78.8 92.2-118.1 176-127.1-19.3-165.5-255-430.7-471.2-466.7 11.3 47.4-32 83.8-30.6 86.1z"/>
									<path id="&lt;Compound Path&gt;" fill-rule="evenodd" class="s6" d="m892.5 1656.8c-15.6 0-30.7-6.3-41.7-17.9-41.3-43.4-86-75.2-121.9-100.9l-2.2-1.5c-23.6-16.9-49.3-31.5-76.5-47-22.2-12.7-45.2-25.8-67.8-40.6-199.9-131.4-148.4-258.7-127.8-294.5 40.5-70.6 127.1-104.3 189.2-73.5q3.9 1.9 7.5 4.5c132.5 93.1 182.7 98.7 194.7 98.3 2.9-9.2 2.8-29 2.8-37-0.1-19.6-0.2-41.7 17.5-60.6q2.1-2.3 4.3-4.3c-4.5-7.1-7.9-15.6-9-25.9-1.7-15.9 3.2-32 13.5-44.3 8.3-10.2 18.1-15.7 28.2-18.9-5.1-14.2-7.3-32.4 1.2-53.3 14.4-35.2 45-45.6 68.7-49-6.6-9.9-13.7-21.5-21.1-35.1-25.1-46.4-42.1-82.7-27.9-116.5-12.1-31-3.7-62.8 3.9-91.2 10.5-39.7 23.6-89-0.1-163.6-4.8-14.2-6.3-36.2 14.2-60.8 4.7-5.7 17.3-20.7 15-30.4-4.5-18.8 0.7-38.6 13.9-52.7 13.2-14.1 32.5-20.6 51.6-17.5 240.9 40.2 496.5 325.2 518.9 516.9 1.7 15.2-2.6 30.6-12.2 42.6-9.6 12-23.6 19.6-38.9 21.3-48.2 5.2-109.3 24.2-126.7 85.5-5.3 18.5-7.3 30.8-9 41.6-5.2 31.4-11.8 55.7-50.4 83.5-16.5 11.9-33.5 17.9-47.9 21.5-0.5 27.5-14.7 48.2-31.5 63.1-0.4 10.6-3.2 21-8.6 31 5.7 20.9-0.7 40.2-6.5 52.5 3.4 2.3 7.1 4.5 10.3 6.5 28 17.4 70.3 43.8 106.5 94.7 15.4 21.6 17.1 47.3 4.7 68.8-21.3 36.9-59.4 33.2-99.8 29.4-103.9-10-173.5-2.3-199 66.6-20.3 54.9-65.4 92.9-127.1 107.2-4.3 1-8.7 1.5-13 1.5zm-300.2-472.2c-9.9 0.5-32.3 11.8-40.8 33.4-14.3 36.2 20.9 86.5 94.2 134.6 19.5 12.8 39.9 24.5 61.6 36.8 28.5 16.3 58 33.1 86.3 53.3l2.2 1.6c30.7 21.9 70.5 50.3 110.6 87.7 10.6-7.3 15.3-16.1 18.2-23.9 38.8-104.7 124.8-136.5 202.2-143.8-10.4-8.3-19.8-18-27-30.3-21.4-36.1-10.3-69.2-1-88.1-5.4-20.2-3.1-41 6.4-58.3-2.2-19 3.1-42.9 31-65.9-5.1-22.9-0.8-43.2 13-60.8 20.1-25.6 48.6-31.1 67.4-34.7 8-1.5 17.1-3.2 20.5-5.7q1.8-1.2 2.9-2.1c0.4-2 0.8-4.4 1.1-6.5 1.9-11.7 4.8-29.5 11.9-54.4 21.6-76.2 78.9-130.8 161-155.8-46-122.7-197.9-294.2-353.6-350.4-4.5 10-9.7 18.7-14.7 26 22.4 91.9 4.7 158.5-6.3 199.8-1.1 4-2.3 8.7-3.4 13q2.1 0.6 4.6 1.1c22.7 5.1 40.1 23.2 44.2 46.1 4.1 22.8-5.9 45.9-25.5 58.5q-3.1 2.1-6.3 3.8 0.2 0.4 0.4 0.9c11.7 21.5 23 36.8 32 49.1 16.3 22.1 59.6 80.9-7.8 131.9-13.8 10.5-28.7 15.9-42.6 18.8q1.8 5.1 3.4 10.8c5.5 20.1 1.9 41.2-10 57.8-5 6.9-10.9 12.4-17.2 16.8q0 1.4 0 2.8c-0.2 37.6-28.3 58.2-47.3 69.4-0.5 35.9-6.3 98.7-62.5 128-64.5 33.7-160 2.4-309.1-101.3zm443.5-741.2q0.1 0.3 0.2 0.5-0.1-0.2-0.2-0.5zm0.2 0.5q0.4 1 0.7 2-0.3-1-0.7-2zm75.8 830.3q0 0.1 0 0.1 0 0 0-0.1z"/>
								</g>
								<g id="&lt;Group&gt;">
									<path id="&lt;Path&gt;" class="s7" d="m982.6 465.5c60.7 189.4-76.4 254.8 45.5 281.9-32.9 21.3-82.1-24.5-25.3 80.5 39.5 73 73.7 82.2 40.1 107.7-26.8 20.2-74.5-0.1-85.1 25.6-6.9 16.8 13.8 24.9 25.1 65.3 6.7 24.4-59 16.4-63.6 22-4.7 5.6 34.4 24.1 34.3 39.6-0.1 15.6-33.6 25-45.2 37.4-12.7 13.5 54.4 249.3-290.2 7-71.5-35.5-244.8 110.1-4.1 268.2 47.6 31.3 99.6 55.8 146 88.9 37.6 26.8 86.4 61.3 132.4 109.6 40.3-9.3 71.6-31.9 86.1-71.1 66.6-179.9 329.6-71.4 301.2-111.4-50.1-70.3-112.8-82.2-130.5-112-15.9-26.9 19.5-48.9 10.2-62.7-9.4-13.8-6.4-25-1-30.4 27.2-26.9-18.7-23.1 20.5-50 42.8-29.4 1.8-47.7 15.5-65.1 13.5-17.3 48.6-9.4 76.2-29.2 33.7-24.2 19.5-29.8 37.7-94.1 22.3-78.8 92.2-118.1 176-127.1-19.3-165.5-255-430.7-471.2-466.7 11.3 47.4-32 83.8-30.6 86.1z"/>
									<path id="&lt;Compound Path&gt;" fill-rule="evenodd" class="s7" d="m892.5 1647.2c-13 0-25.6-5.3-34.8-14.9-41.9-44.1-87-76.2-123.2-102.1l-2.2-1.5c-24-17.1-49.9-31.9-77.3-47.5-22.1-12.7-45-25.7-67.3-40.4-193-126.7-144.3-247.6-124.8-281.7 38.1-66.3 119-98.2 176.6-69.6q3.3 1.6 6.3 3.7c165.8 116.6 206.4 99.3 206.8 99.1 3.9-4 5.9-19.4 5.8-45.6-0.1-18.7-0.2-37.9 14.9-54.1 3.3-3.4 6.7-6.4 10.3-9.2-6.2-7.3-11.1-16.4-12.4-28.5-1.5-13.3 2.6-26.9 11.2-37.2 9.7-11.7 21.8-16.2 34.2-18.2-7-13.7-12.8-33.1-3.2-56.5 16-38.9 54.5-43.5 77-44.5-8.8-12.4-19.1-27.9-29.8-47.8-24.7-45.7-41.2-80.8-26-111.7-13.1-29.2-5.1-59.5 2.8-89 10.8-40.7 24.2-91.2 0.1-167.8-4.7-12.5-6-31.2 12.1-52.8 6.6-8 20.3-24.5 16.9-38.8-3.7-15.7 0.6-32.2 11.6-43.9 11-11.8 27.1-17.3 43-14.6 237.3 39.5 489 319.9 510.9 508.5 1.5 12.7-2.1 25.5-10.1 35.5-8 10-19.7 16.4-32.4 17.7-51.2 5.5-116.1 26-134.9 92.5-5.4 19.1-7.6 32.2-9.3 42.7-4.9 30-10.8 51.5-46.5 77.2-18.2 13.1-36.8 18.5-52.2 21.7 2.1 25.4-8.3 47.5-31.1 66.2 0.4 11.8-2.8 23.4-9.5 34.4 8.5 24-2.7 46.2-8.6 56.9 5.2 3.6 12.1 7.9 17.7 11.4 29 18 68.7 42.7 103.8 92.1 13.1 18.4 14.7 40.3 4.2 58.4-18.2 31.5-51.8 28.3-90.6 24.6-88.9-8.5-178.2-9.9-208.9 72.9-19.1 51.7-61.9 87.6-120.3 101.2-3.6 0.8-7.2 1.2-10.8 1.2zm-299.1-472.2c-10.6 0-35.6 9.8-48.2 33.7-21.9 41.6 13.7 98.4 95.2 151.9 19.8 13 40.3 24.7 62.1 37.2 28.3 16.1 57.6 32.8 85.5 52.7l2.2 1.6c31.8 22.7 73.5 52.4 114.9 91.9 17.9-9.5 24.8-22.5 28.5-32.5 41.5-112 140.4-136.8 221.3-139.2-18.6-11.8-35.6-24.1-46.9-43.2-20.1-33.9-7.7-65.4 1-82.1-6.8-21.5-2.9-42 6.2-57.2-3.3-18.5 1.7-41.8 31.8-64.3-4.2-13.9-7.5-36.7 9.7-58.6 17.9-22.9 43.2-27.7 61.7-31.2 9.9-1.9 19.2-3.7 24.3-7.4 3.2-2.2 5-3.8 6.1-4.7 0.5-2.5 1.2-6.6 1.8-10.1 2-12.3 4.7-29 11.6-53.4 21.5-75.8 80.3-129.4 164.5-152-44.3-134.5-213.7-314.5-371.9-368.6-5.5 14.4-12.9 26.6-19.5 35.9 23.4 91.7 5.7 158.2-5.2 199.3-1.8 7-4.1 15.6-5.4 22.1 3.1 1.1 7.6 2.4 13.8 3.8 18.9 4.2 33.4 19.3 36.8 38.4 3.4 19-4.9 38.2-21.2 48.7-4.8 3.2-9.6 5.6-14.3 7.5q2.3 4.5 5.2 9.9c12 22.1 23.5 37.7 32.7 50.2 16.1 21.9 54 73.2-5.9 118.5-16.1 12.3-34.1 16.9-49.9 18.8 2.6 6.3 5 13.3 7.2 21.1 4.8 17.3 1.7 35.4-8.5 49.6-5.5 7.6-12.1 13.2-19.5 17.4q0.5 3.7 0.5 7.7c-0.2 35.6-29.4 53.9-47.2 64-0.1 34.5-3 96.6-57.4 125-61.3 32-154.5 0.4-301.6-102.3q-0.9-0.1-2-0.1zm430.1-734.6c2 3.2 3.6 6.7 4.7 10.3-1.1-3.5-2.7-6.9-4.7-10.3zm-0.1-0.2q0 0 0 0 0 0 0 0zm96.3 828.6q0 0.1 0.1 0.1-0.1 0-0.1-0.1zm-96.2-828.5q0 0.1 0 0.1 0 0 0-0.1zm-0.1 0q0 0 0 0 0 0 0 0z"/>
								</g>
								<g id="&lt;Group&gt;">
									<path id="&lt;Path&gt;" class="s8" d="m982.6 465.5c60.7 189.4-76.4 254.8 45.5 281.9-32.9 21.3-82.1-24.5-25.3 80.5 39.5 73 73.7 82.2 40.1 107.7-26.8 20.2-74.5-0.1-85.1 25.6-6.9 16.8 13.8 24.9 25.1 65.3 6.7 24.4-59 16.4-63.6 22-4.7 5.6 34.4 24.1 34.3 39.6-0.1 15.6-33.6 25-45.2 37.4-12.7 13.5 54.4 249.3-290.2 7-71.5-35.5-244.8 110.1-4.1 268.2 47.6 31.3 99.6 55.8 146 88.9 37.6 26.8 86.4 61.3 132.4 109.6 40.3-9.3 71.6-31.9 86.1-71.1 66.6-179.9 329.6-71.4 301.2-111.4-50.1-70.3-112.8-82.2-130.5-112-15.9-26.9 19.5-48.9 10.2-62.7-9.4-13.8-6.4-25-1-30.4 27.2-26.9-18.7-23.1 20.5-50 42.8-29.4 1.8-47.7 15.5-65.1 13.5-17.3 48.6-9.4 76.2-29.2 33.7-24.2 19.5-29.8 37.7-94.1 22.3-78.8 92.2-118.1 176-127.1-19.3-165.5-255-430.7-471.2-466.7 11.3 47.4-32 83.8-30.6 86.1z"/>
									<path id="&lt;Compound Path&gt;" fill-rule="evenodd" class="s8" d="m892.5 1637.6c-10.4 0-20.5-4.2-27.8-11.9-42.6-44.7-88.1-77.2-124.7-103.3l-2.2-1.6c-24.3-17.3-50.4-32.2-78.1-48-22-12.5-44.7-25.5-66.7-40-186-122.2-140.2-236.7-121.7-268.9 35-61 111.6-91.8 164-65.8q2.6 1.3 5 3c168.9 118.7 212.3 102 216.7 99.7 11.2-5.8 11-39.7 11-54.2-0.1-18.3-0.2-34.1 12.3-47.4 5.5-5.8 11.9-10.4 18.3-14.4-8.7-7.5-16.4-16.8-17.9-30.9-1.2-10.9 2.1-21.6 9.1-30 11.1-13.6 26.3-15.3 42.6-16.2q-0.2-0.4-0.5-0.8c-7.7-12.4-20.7-33.2-9.6-60.3 15-36.6 53.4-38 74-38.8 3.3-0.1 8-0.3 12.3-0.6q-0.2-0.3-0.4-0.7c-10.3-13.9-24.4-32.9-39.2-60.3-28.6-52.9-38.8-80.7-24.1-106q0.3-0.5 0.5-0.9c-14.6-27.4-6.9-56.3 1.2-86.8 11.2-41.9 25-94 0.1-173.3-4.4-10.9-4.6-25.9 10.2-43.7 11.6-13.9 23-30.4 19-47.2-3-12.5 0.5-25.7 9.2-35.1 8.8-9.4 21.7-13.8 34.4-11.6 107.1 17.8 227.7 89.2 330.7 195.9 97.5 100.9 161.9 214.6 172.3 304.2 1.2 10.1-1.7 20.4-8.1 28.4-6.4 8-15.8 13.1-25.9 14.2-54.1 5.8-122.9 27.7-143.2 99.3-5.5 19.7-7.7 33.1-9.5 43.8-4.6 28.4-9.2 47-42.6 71-20.1 14.5-41.3 18.8-57.1 21.9 3.7 18.1 2 44.8-30.5 69.4 1.7 12.9-1.8 25.7-10.4 37.8 10.6 23.3-1.7 45.2-7.3 55.1-0.8 1.6-2 3.6-2.9 5.4 5.3 4.7 16.5 11.6 25 16.9 28.3 17.6 67 41.7 101.1 89.5 10.9 15.3 12.2 33.3 3.7 48.1-15.1 26.2-42.9 23.5-81.4 19.9-88.5-8.5-185.8-10.1-218.8 79.1-18.3 49.2-57.5 82.2-113.4 95.1-2.9 0.7-5.8 1-8.7 1zm-298.9-472.2c-15.1 0-41.4 11.8-55.7 36.7-26.8 46.7 9.6 108.9 97.2 166.5 20 13.2 40.8 25 62.7 37.5 28.1 16 57.1 32.6 84.6 52.2l2.2 1.6c32.8 23.4 76.2 54.3 118.7 95.6 19.4-8.4 32.3-21.8 39.3-40.7 45.2-122.1 163.4-135.7 245.7-132.7-6.4-4.3-12.7-8.2-18.8-12-21.2-13.1-41.2-25.6-53.2-45.9-19.1-32.2-5-61.7 3.1-76.3-8.4-21.6-4.1-41.9 5.9-56.2-4.4-17.9 0.3-40.1 31.9-61.8q0.6-0.4 1.2-0.8c-4.3-10.9-11.5-34.1 5.9-56.3 15.6-20 38-24.3 55.9-27.7 10.9-2.1 21.2-4.1 28.1-9 7.4-5.3 9-7.5 9.2-7.7 0.6-1.4 1.7-8 2.5-13.4 2-12 4.7-28.5 11.5-52.3 21.3-75.2 81.3-127.6 167.4-147.8-40.5-141.8-219.5-335.1-390.1-387.6-5.8 19.4-15.8 35.2-23.9 46.1 24.5 91.3 7.5 155.4-4.1 198.8-2.7 10.3-6.3 23.8-6.8 30.5 3 1.6 9.4 4.4 22.4 7.3 15.1 3.3 26.8 15.4 29.5 30.7 2.7 15.2-4 30.6-17 39-7.6 4.9-15.4 8-22.8 9.9 2.7 5.5 6.2 12.1 10.5 20 12.2 22.7 24 38.6 33.4 51.4 16.9 22.9 48.3 65.6-4 105.2-19 14.4-40.8 17.1-58.5 18 4.3 8.5 8.7 19 12.4 32.1 4 14.4 1.4 29.5-7.1 41.4-6 8.3-13.8 13.9-22.4 17.7 1 4.1 1.6 8.4 1.6 12.9-0.2 32-28.3 47.8-45.1 57.3q-1 0.5-2.1 1.2c0.1 31 0.1 94.8-52.3 122.1-57.9 30.2-148.4-1.4-293.1-102.7-1.6-0.5-3.6-0.8-5.8-0.8zm421.6-720.1c1.7 2.7 3 5.5 3.9 8.5q0.3 0.7 0.5 1.5c-0.9-3.3-2.3-6.7-4.4-10zm0-0.1q0 0.1 0 0.1 0 0 0-0.1z"/>
								</g>
								<g id="&lt;Group&gt;">
									<path id="&lt;Path&gt;" class="s9" d="m982.6 465.5c60.7 189.4-76.4 254.8 45.5 281.9-32.9 21.3-82.1-24.5-25.3 80.5 39.5 73 73.7 82.2 40.1 107.7-26.8 20.2-74.5-0.1-85.1 25.6-6.9 16.8 13.8 24.9 25.1 65.3 6.7 24.4-59 16.4-63.6 22-4.7 5.6 34.4 24.1 34.3 39.6-0.1 15.6-33.6 25-45.2 37.4-12.7 13.5 54.4 249.3-290.2 7-71.5-35.5-244.8 110.1-4.1 268.2 47.6 31.3 99.6 55.8 146 88.9 37.6 26.8 86.4 61.3 132.4 109.6 40.3-9.3 71.6-31.9 86.1-71.1 66.6-179.9 329.6-71.4 301.2-111.4-50.1-70.3-112.8-82.2-130.5-112-15.9-26.9 19.5-48.9 10.2-62.7-9.4-13.8-6.4-25-1-30.4 27.2-26.9-18.7-23.1 20.5-50 42.8-29.4 1.8-47.7 15.5-65.1 13.5-17.3 48.6-9.4 76.2-29.2 33.7-24.2 19.5-29.8 37.7-94.1 22.3-78.8 92.2-118.1 176-127.1-19.3-165.5-255-430.7-471.2-466.7 11.3 47.4-32 83.8-30.6 86.1z"/>
									<path id="&lt;Compound Path&gt;" fill-rule="evenodd" class="s9" d="m892.5 1628c-7.8 0-15.4-3.1-20.9-8.9-43.2-45.4-89.1-78.2-126-104.5l-2.2-1.6c-24.8-17.6-51.1-32.6-78.9-48.5-21.9-12.5-44.5-25.4-66.3-39.7-178.9-117.6-136-225.8-118.6-256.1 32.6-56.9 103.4-85.8 151.4-62q2 1 3.8 2.2c165.6 116.5 215.4 106.3 226.6 100.4 16.4-8.5 16.3-42.4 16.2-62.7-0.1-17.6-0.1-30.3 9.7-40.8 7.5-8 17.2-13.5 26.7-18.8q0.7-0.4 1.5-0.9-1.1-0.8-2-1.6c-11.2-8.6-21.7-16.8-23.3-31.6-0.8-8.3 1.6-16.4 7-22.8 9.3-11.5 22.5-12.2 39.2-13.1 3.1-0.1 7.5-0.4 12-0.7-2.8-5.6-5.6-10.2-8.3-14.5-7.2-11.5-18.1-29-8.9-51.5 12.7-30.9 44.5-32.1 65.5-32.9 10.5-0.4 22.4-0.8 28-4.2-2.5-3.7-5.9-8.3-8.8-12.4-10.1-13.6-23.9-32.4-38.4-59.2-26.9-49.6-36.7-75.3-24.3-96.6q1.7-2.9 3.7-5.3-0.7-1-1.3-2c-15.1-24.8-8-51.7 0.3-82.8 10.9-40.8 25.7-96.7-0.2-178.9-6.6-16.1 4.7-29.6 8.6-34.3 13.1-15.8 25.9-34.7 20.9-55.6-2.2-9.4 0.4-19.3 7-26.3 6.5-7.1 16.2-10.4 25.7-8.8 225.7 37.6 474.3 313.4 495.1 491.8 0.9 7.6-1.3 15.3-6.1 21.3-4.8 6-11.8 9.8-19.5 10.6-57 6.2-129.5 29.6-151.3 106.3-5.7 20.2-8 33.9-9.7 44.9-4.4 26.7-8.4 42.8-38.8 64.8-19 13.6-39.7 17.5-54.8 20.4-2.6 0.5-5.8 1.1-8.7 1.8 5.5 15.8 10.6 45.3-28.8 72.4q-0.2 0.1-0.4 0.2c3.8 14.1 0.1 27.9-11.1 41.1 13.2 20.3 1.9 40.4-4.2 51.3-2.1 3.7-5.6 9.9-5.6 12.1 3.8 6.2 17 14.4 31 23.1 27.5 17.1 65.3 40.7 98.3 86.9 12.4 17.5 6.4 32.2 3.2 37.7-12.1 20.9-34.7 18.7-72.2 15.1-92.1-8.8-193.3-10.2-228.7 85.3-17.1 46.1-53.9 77-106.6 89.2q-3.3 0.7-6.5 0.7zm-298.8-472c-19.2 0-48.3 13.8-64.1 41.4-30.1 52.3 6.5 117.7 100.3 179.3 20.2 13.3 42 25.7 63.1 37.7 27.9 15.9 56.7 32.4 83.9 51.7l2.2 1.6c33.6 24 78.6 56.1 121.9 99.1 25.3-9.2 41.9-25.2 50.6-48.7 49.4-133.3 187.2-131.3 268.2-124.5-15.4-13-30.9-22.7-45.3-31.6-21-13.1-39.1-24.4-49.9-42.7-17.7-29.7-2.5-56.7 4.8-69.6q0.3-0.6 0.7-1.3c-10.1-21.6-5.1-42.1 5.9-54.8-10.9-30 17-49.1 26.7-55.8 3.9-2.6 6-4.6 7.1-5.8-0.4-1.3-1.1-2.8-1.5-3.9-3.6-8.9-11.9-29.7 3.5-49.4 13.5-17.2 33.9-21 50.2-24.2 12-2.3 23.3-4.4 31.9-10.6 12.6-9.1 12.6-9.1 15.6-27.3 1.9-11.8 4.6-28 11.2-51.3 21.4-75.6 81.3-125.7 170-143.2-36.6-147.7-228.8-356.6-408.9-406.8-5 24.7-18.3 44.3-27.4 56 25.6 91.4 8.6 155.4-2.8 198.4-3.4 12.8-9.1 34.2-6.8 38.1 0.1 0.1 3.8 5.8 29.5 11.5 11.4 2.5 20.1 11.6 22.1 23 2.1 11.5-2.9 23-12.7 29.3-10.8 7-22 9.7-31.7 10.8 3.4 7.3 8.4 17.6 16.1 31.8 12.6 23.3 24.6 39.5 34.1 52.5 17.1 23.1 42.8 58-2 91.8-19.6 15-42.8 15.8-61.4 16.5-2.2 0.1-4.8 0.2-7.4 0.3 5.9 9.6 13.6 23.4 19.2 43.5 3.3 11.9 1.3 23.7-5.6 33.3-6.6 9.2-16.3 14.4-27.1 17.5 2.8 5.6 4.5 11.8 4.5 18.7-0.2 26.4-24.2 39.9-40.2 48.9-2.1 1.2-4.7 2.7-7 4.1 0 1.7 0 3.5 0 5.1 0.1 31.2 0.3 89.2-47.1 114-53.8 28-144.1-4.6-284.2-102.8-2.9-1.1-6.3-1.6-10.2-1.6zm413.4-705.6q1.8 3 2.9 6.3 0.2 0.6 0.4 1.2c-0.7-2.5-1.8-5.1-3.3-7.5zm-0.1-0.1q0.1 0 0.1 0.1 0-0.1-0.1-0.1z"/>
								</g>
								<g id="&lt;Group&gt;">
									<path id="&lt;Path&gt;" class="s10" d="m982.6 465.5c60.7 189.4-76.4 254.8 45.5 281.9-32.9 21.3-82.1-24.5-25.3 80.5 39.5 73 73.7 82.2 40.1 107.7-26.8 20.2-74.5-0.1-85.1 25.6-6.9 16.8 13.8 24.9 25.1 65.3 6.7 24.4-59 16.4-63.6 22-4.7 5.6 34.4 24.1 34.3 39.6-0.1 15.6-33.6 25-45.2 37.4-12.7 13.5 54.4 249.3-290.2 7-71.5-35.5-244.8 110.1-4.1 268.2 47.6 31.3 99.6 55.8 146 88.9 37.6 26.8 86.4 61.3 132.4 109.6 40.3-9.3 71.6-31.9 86.1-71.1 66.6-179.9 329.6-71.4 301.2-111.4-50.1-70.3-112.8-82.2-130.5-112-15.9-26.9 19.5-48.9 10.2-62.7-9.4-13.8-6.4-25-1-30.4 27.2-26.9-18.7-23.1 20.5-50 42.8-29.4 1.8-47.7 15.5-65.1 13.5-17.3 48.6-9.4 76.2-29.2 33.7-24.2 19.5-29.8 37.7-94.1 22.3-78.8 92.2-118.1 176-127.1-19.3-165.5-255-430.7-471.2-466.7 11.3 47.4-32 83.8-30.6 86.1z"/>
									<path id="&lt;Compound Path&gt;" fill-rule="evenodd" class="s10" d="m892.5 1618.4c-5.2 0-10.3-2.1-13.9-5.9-43.8-46.1-90.2-79.2-127.4-105.7l-2.2-1.6c-25.2-17.9-52.9-33.8-79.7-49.1-21.8-12.4-44.3-25.2-65.8-39.3-171.9-113-131.9-214.8-115.6-243.3 30.2-52.7 95.1-79.9 138.8-58.2q1.4 0.6 2.6 1.5c159.4 112.1 216.7 111.4 236.6 101 21.5-11.2 21.4-48.8 21.3-71.3-0.1-16.5-0.1-26.4 7.1-34.2 6.5-6.8 15.6-12 24.4-16.9 3.8-2.2 9.4-5.3 13.2-8-3.7-3.5-9.3-7.9-12.5-10.4-10.3-8.1-18.5-14.4-19.6-25.2-0.6-5.7 1.1-11.2 4.7-15.6 6.7-8.2 16.4-8.7 32.4-9.6 5.9-0.3 17.7-0.9 25.1-2.4-4.2-12.1-9.2-20.2-13.8-27.5-6.9-11-15.5-24.8-8.1-42.8 10.3-25.2 37.3-26.2 56.9-26.9 13.1-0.5 26.7-1 34.3-6.7 3.3-2.5 4.9-4.2 5.7-5.1-1.6-4.1-8.1-12.9-13.4-20-9.9-13.5-23.5-31.9-37.7-58.2-27.7-51.3-33.4-71.6-24.4-87.2 2.3-4 5.2-6.9 8.4-9q-3.5-3.7-6.1-8.1c-13-21.3-6.3-46.3 1.4-75.3 11.2-42.1 26.5-99.7-0.5-184.8-4.7-10.8 2.8-19.8 7-24.8 8.8-10.6 29.6-35.5 22.8-63.9-1.5-6.3 0.3-12.9 4.7-17.6 4.4-4.7 10.8-6.9 17.2-5.8 222.1 37 466.6 308.1 487 483.4 0.6 5.1-0.8 10.2-4 14.2-3.2 4-7.9 6.6-13 7.1-49.1 5.3-135.1 27-159.5 113.2-5.9 20.7-8.2 34.7-10 45.9-4.2 25.6-7.4 38.8-35 58.6-17.2 12.3-35.8 15.9-50.9 18.8-7 1.3-15.4 2.9-19.5 5.1 0.4 1.1 0.9 2.3 1.3 3.3 5.3 13.1 16.2 40.4-23 67.3-2.8 1.9-4.8 3.5-6.3 4.7 4.7 10.2 6.8 24.7-10.9 42.6 0 0.8 0.5 3.1 2.8 6.5 10.6 15.7 1.7 31.5-4.2 42-6.7 12-8.4 16.6-5.3 21.7 4.8 8.2 18.3 16.6 34 26.3 26.9 16.8 63.7 39.7 95.5 84.4 9.3 12.9 5 23.4 2.8 27.3-9 15.5-27 13.8-63 10.3-69.1-6.6-197.7-18.9-238.6 91.6-15.9 42.9-50.4 71.7-99.8 83.1q-2.1 0.5-4.3 0.5zm-299.1-472.1c-23.6 0-55.1 16.6-72.2 46.3-32.8 57.3 4.8 127.3 103.4 192.1 20.5 13.5 42.5 26 63.7 38.1 27.6 15.8 56.2 32.1 83 51.2l2.2 1.5c36.3 26 81.1 57.9 124.9 102.3 31-9.7 51.9-28.6 62.2-56.3 51.2-138.2 204.6-123.5 278.3-116.5 2.4 0.3 4.8 0.5 7.3 0.7-22.6-24.5-46.5-39.4-66.6-51.9-19.9-12.4-37.2-23.1-46.8-39.4-14.8-24.9-1.9-47.8 4.9-60 1-1.8 2.3-4.1 3.2-5.9-11.6-20.5-6.6-39.9 4.1-50.5q1.4-1.5 2.3-2.4c-12-23.2 4.7-38.8 20.8-49.9 13.8-9.4 13-11.5 9.1-21.2-3.5-8.6-9.9-24.5 2.2-39.9 11.2-14.3 28.1-17.5 44.4-20.6 12.5-2.4 25.4-4.9 35.7-12.3 15.9-11.4 16.1-13.1 19.5-33.6 1.9-11.5 4.5-27.4 10.9-50.2 21.2-74.6 82-123.1 172.4-138.1-31.9-153.7-238.5-379.6-428.3-426.5-2.7 30.3-20.3 53.8-30.2 65.9 26.8 91.4 9.9 155.3-1.5 198.1-5.4 20.5-10.1 38.1-5.7 45.5 2.6 4.2 10.8 10.4 35.7 15.9 7.5 1.7 13.3 7.7 14.7 15.3 1.4 7.7-2 15.4-8.5 19.6-14.3 9.2-29.8 9.7-40.5 9.9 2.7 7.5 8.6 21 21.7 45.3 12.9 23.8 25 40.3 34.8 53.6 18.3 24.7 37.1 50.3-0.1 78.5-17.2 13.1-38.7 13.9-56 14.5-7.2 0.3-19.2 0.7-22.4 2.7 0.8 2 3 5.4 4.8 8.3 5.8 9.2 14.5 23.2 20.6 45 2.5 9 1 17.9-4.2 25-7.6 10.6-21 14.8-35.5 16.7 6.5 7.2 11.2 15.4 11.1 25.1-0.1 20.8-19.6 31.8-35.3 40.7-4 2.2-8.6 4.8-11.9 7-0.1 3 0 7 0 10.5 0.1 29.2 0.3 83.4-42 105.5-50.3 26.3-137.7-6.4-275.1-102.8-4.4-1.9-9.5-2.8-15.1-2.8zm407.1-687.8q-0.6-1.5-1.5-3 0.9 1.5 1.5 3zm-1.5-3q0 0 0 0 0 0 0 0zm144.6 797.2q0 0 0 0.1 0-0.1 0-0.1zm29.1-28.3q0 0-0.1 0 0.1 0 0.1 0zm-173.8-768.9q0 0 0 0 0 0 0 0zm0-0.1q0 0 0 0 0 0 0 0z"/>
								</g>
								<g id="&lt;Group&gt;">
									<path id="&lt;Path&gt;" class="s11" d="m982.6 465.5c60.7 189.4-76.4 254.8 45.5 281.9-32.9 21.3-82.1-24.5-25.3 80.5 39.5 73 73.7 82.2 40.1 107.7-26.8 20.2-74.5-0.1-85.1 25.6-6.9 16.8 13.8 24.9 25.1 65.3 6.7 24.4-59 16.4-63.6 22-4.7 5.6 34.4 24.1 34.3 39.6-0.1 15.6-33.6 25-45.2 37.4-12.7 13.5 54.4 249.3-290.2 7-71.5-35.5-244.8 110.1-4.1 268.2 47.6 31.3 99.6 55.8 146 88.9 37.6 26.8 86.4 61.3 132.4 109.6 40.3-9.3 71.6-31.9 86.1-71.1 66.6-179.9 329.6-71.4 301.2-111.4-50.1-70.3-112.8-82.2-130.5-112-15.9-26.9 19.5-48.9 10.2-62.7-9.4-13.8-6.4-25-1-30.4 27.2-26.9-18.7-23.1 20.5-50 42.8-29.4 1.8-47.7 15.5-65.1 13.5-17.3 48.6-9.4 76.2-29.2 33.7-24.2 19.5-29.8 37.7-94.1 22.3-78.8 92.2-118.1 176-127.1-19.3-165.5-255-430.7-471.2-466.7 11.3 47.4-32 83.8-30.6 86.1z"/>
									<path id="&lt;Compound Path&gt;" fill-rule="evenodd" class="s11" d="m892.5 1608.8c-2.6 0-5.1-1-7-3-44.4-46.7-91.2-80-128.7-106.8l-2.2-1.6c-25.6-18.2-53.6-34.2-80.6-49.6-21.6-12.3-44-25.1-65.2-39-165-108.4-127.8-203.9-112.5-230.6 27.3-47.6 87.4-73.5 126.2-54.3q0.6 0.3 1.2 0.7c155.5 109.3 219.9 115.7 246.6 101.7 26.7-13.9 26.6-55.1 26.5-79.8-0.1-15.1-0.1-22.6 4.6-27.6 5.4-5.8 13.4-10.3 22-15.1 7.2-4.1 20.6-11.6 20.6-15.7-0.2-4.3-13.7-14.8-18.7-18.7-9.2-7.1-15.2-11.9-16-18.6-0.3-3.1 0.6-6.1 2.6-8.4 4.1-5 11.3-5.4 25.5-6.2 9.1-0.5 32.9-1.7 36.4-6.5-0.1 0-0.1-0.2-0.2-0.6-4.9-17.8-11.8-28.7-17.2-37.5-6.7-10.6-12.9-20.6-7.4-34 7.9-19.5 29.4-20.3 48.4-21 14.6-0.5 29.6-1.1 39.7-8.7 14.1-10.7 13.9-11.7-5.8-38.4-9.7-13.3-23.1-31.4-37-57-28.2-52.3-30.4-67.7-24.5-77.8 4.5-7.8 12.9-9.4 21.3-9.8-8.8-4.7-15-10.4-19.1-17.1-10.8-17.9-5-40 2.5-67.9 11.5-43.4 27.2-102.7-0.8-190.7-2.6-5.7 1.3-10.4 5.3-15.2 9.8-11.8 32.7-39.3 24.9-72.3-0.8-3.2 0.1-6.5 2.3-8.8 2.2-2.4 5.4-3.5 8.6-2.9 218.5 36.4 459 302.7 479.1 475 0.3 2.5-0.4 5.1-2 7.1-1.6 2-4 3.3-6.5 3.6-51.5 5.5-141.8 28.4-167.8 120.1-6 21.2-8.4 36.1-10.2 47-3.8 23.3-5.5 33.9-31.1 52.3-15.4 11.1-33 14.5-47.1 17.1-12.1 2.4-22.6 4.4-27.2 10.2-1.5 1.9-1.2 3.7 1.9 11.3 5 12.5 13.4 33.2-19.5 55.8-11.5 7.9-12.5 11.2-12.6 11.3 0.2 0 0.9 1.3 1.4 2.1 5.2 9.2 7.8 19.9-7.9 35.5-2.8 2.8-4 9.2 2.1 18.2 7.3 10.8 1 22-4.6 31.9-7.2 12.8-11.1 21.3-5.2 31.3 6 10.2 19.8 18.7 37.2 29.6 26.2 16.3 62.1 38.6 92.8 81.7 5.5 7.8 4.3 13.5 2.3 17-5.9 10.2-20.9 8.7-53.7 5.6-71.7-6.9-205.1-19.6-248.6 97.8-14.7 39.7-46.9 66.4-92.9 77.1q-1.1 0.2-2.2 0.2zm-299-472.1c-27 0-61.6 18-80.6 51.1-16.9 29.5-40.4 108.5 106.4 204.9 20.8 13.6 42.9 26.2 64.2 38.4 27.5 15.7 55.9 31.9 82.2 50.7l2.2 1.5c37.2 26.5 83.1 59.3 127.7 105.3 37.1-10 62-31.4 74-63.8 48.6-131.2 197-117 268.4-110.2 10.7 1 22.4 2.1 30 2.2-27.5-36.4-58.3-55.6-83.3-71.1-19.7-12.2-35.2-21.9-43.6-36.1-12-20.3-1.8-38.5 5-50.5 2.1-3.7 5.6-10 5.4-11.9-12.6-18.5-7.8-34.4 0.3-42.4 7.5-7.5 6.7-8.8 4.7-12.4-8.1-14.2-3.4-24.7 17-38.7 20.2-13.9 17.2-21.4 12.6-32.8-3.3-8.2-7.8-19.4 0.8-30.4 9-11.4 23.5-14.2 38.7-17.1 13.5-2.6 27.5-5.3 39.5-13.9 19.1-13.7 19.8-18.2 23.4-39.8 1.8-11.4 4.4-26.9 10.7-49.1 20.8-73.4 82.5-120.3 174.3-132.8-12.7-77.3-72.3-178.4-157.8-266.9-91.8-95.1-197.1-159.9-291.1-179.6 1.9 35.8-21.4 63.7-30.8 74.9q-0.4 0.5-0.7 0.8c28.2 91.5 11.2 155.3-0.1 197.8-6.5 24.5-11.2 42.1-4.6 53 5.2 8.5 18.9 15.2 41.8 20.3 3.8 0.8 6.7 3.8 7.3 7.6 0.7 3.8-1 7.7-4.2 9.8-12.3 8-26.2 8.2-36.3 8.4-3.5 0.1-8.6 0.2-10.7 0.8-0.4 3.6 1.8 15.8 24.9 58.6 13.3 24.5 25.6 41.3 35.6 54.8 18.3 24.8 31.5 42.7 1.9 65.1-14.9 11.3-33.9 12-50.6 12.6-17.4 0.6-28.3 1.4-31.4 9-1.6 4-0.3 6.7 5.9 16.6 5.9 9.3 13.8 22.1 19.5 42.6 2.2 7.8-0.2 13.5-2.7 16.8-8.1 11.4-27 13.3-50.9 14.6 11.9 9.3 24.8 19.8 24.7 32.8-0.1 15.2-16.2 24.3-30.4 32.3-6.3 3.5-12.7 7.2-16.4 10.5-0.5 2.9-0.4 9.8-0.4 15.4 0.1 29.1 0.3 77.6-36.8 97-46.3 24.1-133.2-9.4-265.9-102.6-5.7-2.7-12.5-4.1-19.8-4.1zm397.3-676.2q0.2 0.3 0.3 0.6-0.1-0.3-0.3-0.6zm-74.2 669.7q0 0 0 0zm74.5-669.1q0 0.1 0 0.1 0 0 0-0.1zm-0.4-0.7q0 0.1 0.1 0.1-0.1 0-0.1-0.1z"/>
								</g>
								<path id="&lt;Path&gt;" class="s1" d="m982.6 465.5c60.7 189.4-76.4 254.8 45.5 281.9-32.9 21.3-82.1-24.5-25.3 80.5 39.5 73 73.7 82.2 40.1 107.7-26.8 20.2-74.5-0.1-85.1 25.6-6.9 16.8 13.8 24.9 25.1 65.3 6.7 24.4-59 16.4-63.6 22-4.7 5.6 34.4 24.1 34.3 39.6-0.1 15.6-33.6 25-45.2 37.4-12.7 13.5 54.4 249.3-290.2 7-71.5-35.5-244.8 110.1-4.1 268.2 47.6 31.3 99.6 55.8 146 88.9 37.6 26.8 86.4 61.3 132.4 109.6 40.3-9.3 71.6-31.9 86.1-71.1 66.6-179.9 329.6-71.4 301.2-111.4-50.1-70.3-112.8-82.2-130.5-112-15.9-26.9 19.5-48.9 10.2-62.7-9.4-13.8-6.4-25-1-30.4 27.2-26.9-18.7-23.1 20.5-50 42.8-29.4 1.8-47.7 15.5-65.1 13.5-17.3 48.6-9.4 76.2-29.2 33.7-24.2 19.5-29.8 37.7-94.1 22.3-78.8 92.2-118.1 176-127.1-19.3-165.5-255-430.7-471.2-466.7 11.3 47.4-32 83.8-30.6 86.1z"/>
							</g>
						</g>
						<g id="&lt;Group&gt;">
							<g id="&lt;Clip Group&gt;" clip-path="url(#cp15)">
							</g>
						</g>
					</g>
					<g id="&lt;Group&gt;">
						<g id="&lt;Group&gt;">
							<g id="&lt;Clip Group&gt;" clip-path="url(#cp16)">
							</g>
						</g>
						<g id="&lt;Group&gt;">
							<g id="&lt;Clip Group&gt;" clip-path="url(#cp17)">
							</g>
						</g>
						<g id="&lt;Group&gt;">
							<g id="&lt;Clip Group&gt;" clip-path="url(#cp18)">
							</g>
						</g>
					</g>
				</g>
				<g id="&lt;Group&gt;">
					<g id="&lt;Group&gt;">
						<g id="&lt;Group&gt;">
							<g id="&lt;Clip Group&gt;" clip-path="url(#cp19)">
							</g>
						</g>
						<g id="&lt;Group&gt;">
							<g id="&lt;Clip Group&gt;" clip-path="url(#cp20)">
							</g>
						</g>
						<g id="&lt;Group&gt;">
							<g id="&lt;Clip Group&gt;" clip-path="url(#cp21)">
							</g>
						</g>
					</g>
					<g id="&lt;Group&gt;">
						<g id="&lt;Group&gt;">
							<g id="&lt;Clip Group&gt;" clip-path="url(#cp22)">
							</g>
						</g>
						<g id="&lt;Group&gt;">
							<g id="&lt;Clip Group&gt;" clip-path="url(#cp23)">
							</g>
						</g>
						<g id="&lt;Group&gt;">
							<g id="&lt;Clip Group&gt;" clip-path="url(#cp24)">
							</g>
						</g>
					</g>
					<g id="&lt;Group&gt;">
						<g id="&lt;Group&gt;">
							<g id="&lt;Clip Group&gt;" clip-path="url(#cp25)">
							</g>
						</g>
						<g id="&lt;Group&gt;">
							<g id="&lt;Clip Group&gt;" clip-path="url(#cp26)">
							</g>
						</g>
						<g id="&lt;Group&gt;">
							<g id="&lt;Clip Group&gt;" clip-path="url(#cp27)">
							</g>
						</g>
					</g>
				</g>
			</g>
		</g>
	</g>
</svg>